{
    "asset" : {
        "generator" : "Khronos glTF Blender I/O v1.7.33",
        "version" : "2.0"
    },
    "scene" : 0,
    "scenes" : [
        {
            "name" : "Scene",
            "nodes" : [
                0
            ]
        }
    ],
    "nodes" : [
        {
            "mesh" : 0,
            "name" : "Cube",
            "translation" : [
                0,
                5.176153659820557,
                -36.266395568847656
            ]
        }
    ],
    "materials" : [
        {
            "doubleSided" : true,
            "name" : "Base White",
            "pbrMetallicRoughness" : {
                "baseColorFactor" : [
                    0.800000011920929,
                    0.800000011920929,
                    0.800000011920929,
                    1
                ],
                "metallicFactor" : 0,
                "roughnessFactor" : 0.5
            }
        }
    ],
    "meshes" : [
        {
            "name" : "Cube.009",
            "primitives" : [
                {
                    "attributes" : {
                        "POSITION" : 0,
                        "NORMAL" : 1,
                        "TEXCOORD_0" : 2
                    },
                    "indices" : 3,
                    "material" : 0
                }
            ]
        }
    ],
    "accessors" : [
        {
            "bufferView" : 0,
            "componentType" : 5126,
            "count" : 495,
            "max" : [
                27.145030975341797,
                8.098869323730469,
                14.007843971252441
            ],
            "min" : [
                -3.029951572418213,
                -1.0644199848175049,
                -26.37987518310547
            ],
            "type" : "VEC3"
        },
        {
            "bufferView" : 1,
            "componentType" : 5126,
            "count" : 495,
            "type" : "VEC3"
        },
        {
            "bufferView" : 2,
            "componentType" : 5126,
            "count" : 495,
            "type" : "VEC2"
        },
        {
            "bufferView" : 3,
            "componentType" : 5123,
            "count" : 747,
            "type" : "SCALAR"
        }
    ],
    "bufferViews" : [
        {
            "buffer" : 0,
            "byteLength" : 5940,
            "byteOffset" : 0
        },
        {
            "buffer" : 0,
            "byteLength" : 5940,
            "byteOffset" : 5940
        },
        {
            "buffer" : 0,
            "byteLength" : 3960,
            "byteOffset" : 11880
        },
        {
            "buffer" : 0,
            "byteLength" : 1494,
            "byteOffset" : 15840
        }
    ],
    "buffers" : [
        {
            "byteLength" : 17336,
            "uri" : "data:application/octet-stream;base64,"
        }
    ]
}
