{
    "asset" : {
        "generator" : "Khronos glTF Blender I/O v1.7.33",
        "version" : "2.0"
    },
    "scene" : 0,
    "scenes" : [
        {
            "name" : "Scene",
            "nodes" : [
                0
            ]
        }
    ],
    "nodes" : [
        {
            "mesh" : 0,
            "name" : "Halo",
            "rotation" : [
                0.14015497267246246,
                0.09988486766815186,
                0.573287844657898,
                0.8010746836662292
            ]
        }
    ],
    "materials" : [
        {
            "doubleSided" : true,
            "name" : "Base White",
            "pbrMetallicRoughness" : {
                "baseColorFactor" : [
                    0.800000011920929,
                    0.800000011920929,
                    0.800000011920929,
                    1
                ],
                "metallicFactor" : 0,
                "roughnessFactor" : 0.5
            }
        }
    ],
    "meshes" : [
        {
            "name" : "Circle.001",
            "primitives" : [
                {
                    "attributes" : {
                        "POSITION" : 0,
                        "NORMAL" : 1,
                        "TEXCOORD_0" : 2
                    },
                    "indices" : 3,
                    "material" : 0
                }
            ]
        }
    ],
    "accessors" : [
        {
            "bufferView" : 0,
            "componentType" : 5126,
            "count" : 638,
            "max" : [
                59.959999084472656,
                6.849298477172852,
                59.959999084472656
            ],
            "min" : [
                -59.959999084472656,
                2.241854190826416,
                -59.959999084472656
            ],
            "type" : "VEC3"
        },
        {
            "bufferView" : 1,
            "componentType" : 5126,
            "count" : 638,
            "type" : "VEC3"
        },
        {
            "bufferView" : 2,
            "componentType" : 5126,
            "count" : 638,
            "type" : "VEC2"
        },
        {
            "bufferView" : 3,
            "componentType" : 5123,
            "count" : 960,
            "type" : "SCALAR"
        }
    ],
    "bufferViews" : [
        {
            "buffer" : 0,
            "byteLength" : 7656,
            "byteOffset" : 0
        },
        {
            "buffer" : 0,
            "byteLength" : 7656,
            "byteOffset" : 7656
        },
        {
            "buffer" : 0,
            "byteLength" : 5104,
            "byteOffset" : 15312
        },
        {
            "buffer" : 0,
            "byteLength" : 1920,
            "byteOffset" : 20416
        }
    ],
    "buffers" : [
        {
            "byteLength" : 22336,
            "uri" : "data:application/octet-stream;base64,"
        }
    ]
}
