{
    "asset" : {
        "generator" : "Khronos glTF Blender I/O v1.7.33",
        "version" : "2.0"
    },
    "scene" : 0,
    "scenes" : [
        {
            "name" : "Scene",
            "nodes" : [
                0
            ]
        }
    ],
    "nodes" : [
        {
            "mesh" : 0,
            "name" : "Hanger",
            "scale" : [
                2.730839967727661,
                3.4788899421691895,
                2.730839967727661
            ]
        }
    ],
    "materials" : [
        {
            "doubleSided" : true,
            "name" : "Material.001",
            "pbrMetallicRoughness" : {
                "baseColorFactor" : [
                    0.800000011920929,
                    0.800000011920929,
                    0.800000011920929,
                    1
                ],
                "metallicFactor" : 0
            }
        }
    ],
    "meshes" : [
        {
            "name" : "Cube.002",
            "primitives" : [
                {
                    "attributes" : {
                        "POSITION" : 0,
                        "NORMAL" : 1,
                        "TEXCOORD_0" : 2
                    },
                    "indices" : 3,
                    "material" : 0
                }
            ]
        }
    ],
    "accessors" : [
        {
            "bufferView" : 0,
            "componentType" : 5126,
            "count" : 5626,
            "max" : [
                26.014516830444336,
                6.96906042098999,
                47.9824333190918
            ],
            "min" : [
                -26.014516830444336,
                -7.373293876647949,
                -47.13473129272461
            ],
            "type" : "VEC3"
        },
        {
            "bufferView" : 1,
            "componentType" : 5126,
            "count" : 5626,
            "type" : "VEC3"
        },
        {
            "bufferView" : 2,
            "componentType" : 5126,
            "count" : 5626,
            "type" : "VEC2"
        },
        {
            "bufferView" : 3,
            "componentType" : 5123,
            "count" : 8628,
            "type" : "SCALAR"
        }
    ],
    "bufferViews" : [
        {
            "buffer" : 0,
            "byteLength" : 67512,
            "byteOffset" : 0
        },
        {
            "buffer" : 0,
            "byteLength" : 67512,
            "byteOffset" : 67512
        },
        {
            "buffer" : 0,
            "byteLength" : 45008,
            "byteOffset" : 135024
        },
        {
            "buffer" : 0,
            "byteLength" : 17256,
            "byteOffset" : 180032
        }
    ],
    "buffers" : [
        {
            "byteLength" : 197288,
            "uri" : "data:application/octet-stream;base64,"
        }
    ]
}
