{
    "asset" : {
        "generator" : "Khronos glTF Blender I/O v1.7.33",
        "version" : "2.0"
    },
    "scene" : 0,
    "scenes" : [
        {
            "name" : "Scene",
            "nodes" : [
                0
            ]
        }
    ],
    "nodes" : [
        {
            "mesh" : 0,
            "name" : "Logo",
            "rotation" : [
                0.7071068286895752,
                0,
                0,
                0.7071068286895752
            ],
            "scale" : [
                0.9240798950195312,
                0.9240798950195312,
                0.9240798950195312
            ],
            "translation" : [
                1.2741963863372803,
                -1.2741960287094116,
                -0.18778586387634277
            ]
        }
    ],
    "animations" : [
        {
            "channels" : [
                {
                    "sampler" : 0,
                    "target" : {
                        "node" : 0,
                        "path" : "rotation"
                    }
                }
            ],
            "name" : "LogoAction",
            "samplers" : [
                {
                    "input" : 8,
                    "interpolation" : "LINEAR",
                    "output" : 9
                }
            ]
        }
    ],
    "materials" : [
        {
            "doubleSided" : true,
            "name" : "Base White",
            "pbrMetallicRoughness" : {
                "baseColorFactor" : [
                    0.800000011920929,
                    0.800000011920929,
                    0.800000011920929,
                    1
                ],
                "metallicFactor" : 0,
                "roughnessFactor" : 0.5
            }
        },
        {
            "doubleSided" : true,
            "name" : "Matte Black",
            "pbrMetallicRoughness" : {
                "baseColorFactor" : [
                    0.04066397622227669,
                    0.04066397622227669,
                    0.04066397622227669,
                    1
                ],
                "metallicFactor" : 0
            }
        }
    ],
    "meshes" : [
        {
            "name" : "Circle",
            "primitives" : [
                {
                    "attributes" : {
                        "POSITION" : 0,
                        "NORMAL" : 1,
                        "TEXCOORD_0" : 2
                    },
                    "indices" : 3,
                    "material" : 0
                },
                {
                    "attributes" : {
                        "POSITION" : 4,
                        "NORMAL" : 5,
                        "TEXCOORD_0" : 6
                    },
                    "indices" : 7,
                    "material" : 1
                }
            ]
        }
    ],
    "accessors" : [
        {
            "bufferView" : 0,
            "componentType" : 5126,
            "count" : 292,
            "max" : [
                5.989392280578613,
                -0.15957890450954437,
                5.930567741394043
            ],
            "min" : [
                -6.237734794616699,
                -0.8818608522415161,
                -6.326535224914551
            ],
            "type" : "VEC3"
        },
        {
            "bufferView" : 1,
            "componentType" : 5126,
            "count" : 292,
            "type" : "VEC3"
        },
        {
            "bufferView" : 2,
            "componentType" : 5126,
            "count" : 292,
            "type" : "VEC2"
        },
        {
            "bufferView" : 3,
            "componentType" : 5123,
            "count" : 1302,
            "type" : "SCALAR"
        },
        {
            "bufferView" : 4,
            "componentType" : 5126,
            "count" : 291,
            "max" : [
                5.989392280578613,
                0.708675742149353,
                5.930567741394043
            ],
            "min" : [
                -6.237734794616699,
                -0.15957994759082794,
                -6.326535224914551
            ],
            "type" : "VEC3"
        },
        {
            "bufferView" : 5,
            "componentType" : 5126,
            "count" : 291,
            "type" : "VEC3"
        },
        {
            "bufferView" : 6,
            "componentType" : 5126,
            "count" : 291,
            "type" : "VEC2"
        },
        {
            "bufferView" : 7,
            "componentType" : 5123,
            "count" : 1296,
            "type" : "SCALAR"
        },
        {
            "bufferView" : 8,
            "componentType" : 5126,
            "count" : 131,
            "max" : [
                5.416666666666667
            ],
            "min" : [
                0
            ],
            "type" : "SCALAR"
        },
        {
            "bufferView" : 9,
            "componentType" : 5126,
            "count" : 131,
            "type" : "VEC4"
        }
    ],
    "bufferViews" : [
        {
            "buffer" : 0,
            "byteLength" : 3504,
            "byteOffset" : 0
        },
        {
            "buffer" : 0,
            "byteLength" : 3504,
            "byteOffset" : 3504
        },
        {
            "buffer" : 0,
            "byteLength" : 2336,
            "byteOffset" : 7008
        },
        {
            "buffer" : 0,
            "byteLength" : 2604,
            "byteOffset" : 9344
        },
        {
            "buffer" : 0,
            "byteLength" : 3492,
            "byteOffset" : 11948
        },
        {
            "buffer" : 0,
            "byteLength" : 3492,
            "byteOffset" : 15440
        },
        {
            "buffer" : 0,
            "byteLength" : 2328,
            "byteOffset" : 18932
        },
        {
            "buffer" : 0,
            "byteLength" : 2592,
            "byteOffset" : 21260
        },
        {
            "buffer" : 0,
            "byteLength" : 524,
            "byteOffset" : 23852
        },
        {
            "buffer" : 0,
            "byteLength" : 2096,
            "byteOffset" : 24376
        }
    ],
    "buffers" : [
        {
            "byteLength" : 26472,
            "uri" : "data:application/octet-stream;base64,"
        }
    ]
}
