<svg width="563" height="563" viewBox="0 0 563 563" fill="none" xmlns="http://www.w3.org/2000/svg">
<path fill-rule="evenodd" clip-rule="evenodd" d="M0 250C0 351.469 60.4504 438.818 147.302 478C147.302 478 138.73 460.809 132 434.5C126.5 413 125.5 390.203 125.5 390.203C86.8506 355.857 62.5 305.772 62.5 250C62.5 146.447 146.447 62.5 250 62.5C305.663 62.5 355.66 86.755 390 125.272C390 125.272 415.5 127.5 434.5 132C456.454 137.2 477.863 147 477.863 147C438.616 60.3102 351.351 0 250 0C111.929 0 0 111.929 0 250Z" fill="white"/>
<circle cx="375" cy="375" r="188" fill="white"/>
</svg>
