<svg width="1905" height="981" viewBox="0 0 1905 981" fill="none" xmlns="http://www.w3.org/2000/svg">
<line x1="120" y1="41.5" x2="40" y2="41.5" stroke="black"/>
<line x1="39.5" y1="121" x2="39.5" y2="41" stroke="black"/>
<line x1="40.5" y1="864" x2="40.5" y2="944" stroke="black"/>
<line x1="120" y1="944.5" x2="40" y2="944.5" stroke="black"/>
<line x1="1776" y1="943.5" x2="1856" y2="943.5" stroke="black"/>
<line x1="1856.5" y1="864" x2="1856.5" y2="944" stroke="black"/>
<line x1="1855.5" y1="155" x2="1855.5" y2="57" stroke="black"/>
<line x1="1758" y1="56.5" x2="1856" y2="56.5" stroke="black"/>
<line y1="-0.5" x2="40.9874" y2="-0.5" transform="matrix(-0.610739 -0.791832 0.951272 -0.308354 1687.1 111)" stroke="black"/>
<line y1="-0.5" x2="40.9874" y2="-0.5" transform="matrix(-0.610739 -0.791832 0.951272 -0.308354 1664.58 110.697)" stroke="black"/>
<line y1="-0.5" x2="40.9874" y2="-0.5" transform="matrix(-0.610739 -0.791832 0.951272 -0.308354 1639.58 110.352)" stroke="black"/>
<line y1="-0.5" x2="40.9874" y2="-0.5" transform="matrix(-0.610739 -0.791832 0.951272 -0.308354 1617.07 110.048)" stroke="black"/>
<line y1="-0.5" x2="40.9874" y2="-0.5" transform="matrix(-0.610739 -0.791832 0.951272 -0.308354 1591.58 110.352)" stroke="black"/>
<line y1="-0.5" x2="40.9874" y2="-0.5" transform="matrix(-0.610739 -0.791832 0.951272 -0.308354 1569.07 110.048)" stroke="black"/>
<line y1="-0.5" x2="40.9874" y2="-0.5" transform="matrix(-0.610739 -0.791832 0.951272 -0.308354 1544.07 109.703)" stroke="black"/>
<line y1="-0.5" x2="40.9874" y2="-0.5" transform="matrix(-0.610739 -0.791832 0.951272 -0.308354 1521.55 109.4)" stroke="black"/>
<line y1="-0.5" x2="40.9874" y2="-0.5" transform="matrix(-0.610739 -0.791832 0.951272 -0.308354 1495.58 109.055)" stroke="black"/>
<line y1="-0.5" x2="40.9874" y2="-0.5" transform="matrix(-0.610739 -0.791832 0.951272 -0.308354 1473.07 108.752)" stroke="black"/>
<line y1="-0.5" x2="40.9874" y2="-0.5" transform="matrix(-0.610739 -0.791832 0.951272 -0.308354 1448.07 108.407)" stroke="black"/>
<line y1="-0.5" x2="40.9874" y2="-0.5" transform="matrix(-0.610739 -0.791832 0.951272 -0.308354 1425.55 108.103)" stroke="black"/>
<line y1="-0.5" x2="40.9874" y2="-0.5" transform="matrix(-0.610739 -0.791832 0.951272 -0.308354 1400.07 108.407)" stroke="black"/>
<line y1="-0.5" x2="40.9874" y2="-0.5" transform="matrix(-0.610739 -0.791832 0.951272 -0.308354 1377.55 108.103)" stroke="black"/>
<line y1="-0.5" x2="40.9874" y2="-0.5" transform="matrix(-0.610739 -0.791832 0.951272 -0.308354 1352.55 107.759)" stroke="black"/>
<line y1="-0.5" x2="40.9874" y2="-0.5" transform="matrix(-0.610739 -0.791832 0.951272 -0.308354 1330.03 107.455)" stroke="black"/>
<line x1="1305" y1="75.5" x2="953" y2="75.5" stroke="black"/>
<rect x="328" y="42" width="20" height="20" fill="black"/>
<rect x="353" y="42" width="20" height="20" fill="black"/>
<rect x="328" y="67" width="20" height="20" fill="black"/>
<rect x="353.5" y="67.5" width="19" height="19" stroke="black"/>
<path d="M281.853 58.253C280.657 58.253 279.737 57.9847 279.093 57.448C278.449 56.896 278.127 56.1983 278.127 55.355C278.127 54.7877 278.265 54.2817 278.541 53.837C278.817 53.377 279.193 52.9937 279.668 52.687C280.159 52.365 280.726 52.1197 281.37 51.951C282.014 51.7823 282.696 51.698 283.417 51.698C283.678 51.698 283.938 51.7057 284.199 51.721C284.475 51.721 284.759 51.7363 285.05 51.767C285.357 51.7823 285.671 51.813 285.993 51.859L286.039 53.124C285.763 53.078 285.479 53.0473 285.188 53.032C284.912 53.0013 284.636 52.9783 284.36 52.963C284.084 52.9477 283.816 52.94 283.555 52.94C283.003 52.94 282.497 52.986 282.037 53.078C281.577 53.17 281.178 53.308 280.841 53.492C280.504 53.676 280.243 53.9137 280.059 54.205C279.875 54.4963 279.783 54.849 279.783 55.263C279.783 55.585 279.837 55.861 279.944 56.091C280.067 56.3057 280.228 56.482 280.427 56.62C280.626 56.7427 280.856 56.8347 281.117 56.896C281.393 56.9573 281.692 56.988 282.014 56.988C282.612 56.988 283.141 56.896 283.601 56.712C284.076 56.5127 284.475 56.229 284.797 55.861C285.134 55.493 285.387 55.0407 285.556 54.504C285.725 53.9673 285.809 53.354 285.809 52.664C285.809 51.6213 285.686 50.8087 285.441 50.226C285.196 49.6433 284.828 49.2293 284.337 48.984C283.862 48.7387 283.248 48.616 282.497 48.616C281.991 48.616 281.493 48.7157 281.002 48.915C280.511 49.099 280.067 49.3903 279.668 49.789L278.863 48.731C279.354 48.2403 279.921 47.8723 280.565 47.627C281.209 47.3817 281.891 47.259 282.612 47.259C283.302 47.259 283.931 47.3433 284.498 47.512C285.065 47.6807 285.548 47.9643 285.947 48.363C286.361 48.7463 286.675 49.2677 286.89 49.927C287.12 50.5863 287.235 51.4143 287.235 52.411V58H285.441V56.39C285.242 56.7733 284.996 57.0877 284.705 57.333C284.429 57.5783 284.13 57.77 283.808 57.908C283.486 58.0307 283.156 58.115 282.819 58.161C282.482 58.2223 282.16 58.253 281.853 58.253ZM291.237 47.489H292.962L292.893 50.548L292.686 50.203C292.778 49.7277 292.939 49.306 293.169 48.938C293.399 48.57 293.675 48.2633 293.997 48.018C294.319 47.7573 294.672 47.5657 295.055 47.443C295.438 47.305 295.837 47.236 296.251 47.236C296.803 47.236 297.309 47.3357 297.769 47.535C298.244 47.719 298.666 48.0027 299.034 48.386L298.298 49.674L298.206 49.881L298.045 49.789C298.014 49.6663 297.968 49.5513 297.907 49.444C297.846 49.3367 297.715 49.2063 297.516 49.053C297.271 48.8997 297.041 48.8 296.826 48.754C296.627 48.6927 296.397 48.662 296.136 48.662C295.753 48.662 295.369 48.7387 294.986 48.892C294.603 49.03 294.25 49.2523 293.928 49.559C293.621 49.8657 293.376 50.2567 293.192 50.732C293.008 51.2073 292.916 51.7747 292.916 52.434V58.023H291.237V47.489ZM306.555 58.253C305.788 58.253 305.083 58.115 304.439 57.839C303.795 57.563 303.235 57.1797 302.76 56.689C302.3 56.1983 301.94 55.6233 301.679 54.964C301.418 54.2893 301.288 53.5533 301.288 52.756C301.288 51.974 301.418 51.2533 301.679 50.594C301.94 49.9193 302.3 49.3367 302.76 48.846C303.235 48.3553 303.795 47.972 304.439 47.696C305.083 47.42 305.781 47.282 306.532 47.282C307.391 47.282 308.157 47.4583 308.832 47.811C309.522 48.1483 310.082 48.6237 310.511 49.237L309.476 50.249L309.315 50.41L309.2 50.295C309.2 50.1723 309.169 50.0573 309.108 49.95C309.062 49.8427 308.947 49.697 308.763 49.513C308.426 49.2063 308.065 48.9917 307.682 48.869C307.299 48.7463 306.854 48.685 306.348 48.685C305.903 48.685 305.482 48.777 305.083 48.961C304.684 49.145 304.324 49.4133 304.002 49.766C303.695 50.1033 303.45 50.5173 303.266 51.008C303.082 51.4987 302.99 52.043 302.99 52.641C302.99 53.239 303.082 53.791 303.266 54.297C303.45 54.7877 303.703 55.217 304.025 55.585C304.347 55.953 304.73 56.2443 305.175 56.459C305.635 56.6583 306.126 56.758 306.647 56.758C307 56.758 307.337 56.712 307.659 56.62C307.981 56.5127 308.288 56.367 308.579 56.183C308.87 55.9837 309.139 55.746 309.384 55.47L310.35 56.597C309.829 57.149 309.246 57.563 308.602 57.839C307.973 58.115 307.291 58.253 306.555 58.253ZM316.974 50.916C316.621 50.916 316.307 50.7857 316.031 50.525C315.755 50.2643 315.617 49.9577 315.617 49.605C315.617 49.237 315.755 48.9227 316.031 48.662C316.307 48.4013 316.621 48.271 316.974 48.271C317.327 48.271 317.641 48.4013 317.917 48.662C318.208 48.9227 318.354 49.237 318.354 49.605C318.354 49.9577 318.216 50.2643 317.94 50.525C317.664 50.7857 317.342 50.916 316.974 50.916ZM316.974 58.253C316.591 58.253 316.269 58.1303 316.008 57.885C315.747 57.6243 315.617 57.31 315.617 56.942C315.617 56.574 315.755 56.2597 316.031 55.999C316.307 55.7383 316.621 55.608 316.974 55.608C317.327 55.608 317.641 55.7383 317.917 55.999C318.208 56.2597 318.354 56.574 318.354 56.942C318.354 57.2947 318.216 57.6013 317.94 57.862C317.679 58.1227 317.357 58.253 316.974 58.253ZM278.38 85.841V71.489H280.059V73.559C280.228 73.0223 280.465 72.5853 280.772 72.248C281.094 71.9107 281.462 71.6653 281.876 71.512C282.305 71.3433 282.765 71.259 283.256 71.259C283.839 71.259 284.391 71.374 284.912 71.604C285.449 71.8187 285.916 72.1483 286.315 72.593C286.729 73.0377 287.051 73.5973 287.281 74.272C287.526 74.9467 287.649 75.744 287.649 76.664C287.649 77.584 287.519 78.3967 287.258 79.102C287.013 79.8073 286.675 80.3977 286.246 80.873C285.832 81.333 285.357 81.6857 284.82 81.931C284.299 82.161 283.762 82.276 283.21 82.276C282.796 82.276 282.39 82.207 281.991 82.069C281.608 81.9463 281.255 81.7623 280.933 81.517C280.611 81.2563 280.327 80.9573 280.082 80.62V85.841H278.38ZM282.934 80.804C283.302 80.804 283.662 80.7427 284.015 80.62C284.368 80.482 284.69 80.2597 284.981 79.953C285.272 79.6463 285.502 79.2323 285.671 78.711C285.84 78.1743 285.924 77.515 285.924 76.733C285.924 75.8897 285.817 75.1767 285.602 74.594C285.387 73.996 285.073 73.536 284.659 73.214C284.26 72.892 283.77 72.7157 283.187 72.685C282.758 72.6543 282.351 72.7157 281.968 72.869C281.6 73.0223 281.27 73.2753 280.979 73.628C280.688 73.9807 280.458 74.4483 280.289 75.031C280.136 75.5983 280.059 76.2883 280.059 77.101C280.074 77.5917 280.128 78.0363 280.22 78.435C280.312 78.8337 280.442 79.1863 280.611 79.493C280.78 79.7843 280.979 80.0297 281.209 80.229C281.439 80.413 281.7 80.5587 281.991 80.666C282.282 80.758 282.597 80.804 282.934 80.804ZM289.374 82V71.489H290.892V72.524C291.061 72.2633 291.252 72.041 291.467 71.857C291.697 71.6577 291.942 71.5043 292.203 71.397C292.479 71.2897 292.755 71.236 293.031 71.236C293.338 71.236 293.621 71.305 293.882 71.443C294.143 71.5657 294.357 71.742 294.526 71.972C294.71 72.202 294.833 72.4703 294.894 72.777C295.032 72.4703 295.216 72.202 295.446 71.972C295.691 71.742 295.967 71.5657 296.274 71.443C296.596 71.305 296.926 71.236 297.263 71.236C297.616 71.236 297.922 71.305 298.183 71.443C298.444 71.581 298.658 71.7727 298.827 72.018C298.996 72.248 299.118 72.5317 299.195 72.869C299.272 73.191 299.302 73.5437 299.287 73.927V82H297.769V74.548C297.769 73.904 297.723 73.4363 297.631 73.145C297.554 72.8537 297.439 72.6697 297.286 72.593C297.133 72.501 296.964 72.455 296.78 72.455C296.489 72.455 296.213 72.593 295.952 72.869C295.707 73.1297 295.5 73.4593 295.331 73.858C295.178 74.2567 295.101 74.6553 295.101 75.054V82H293.56V74.686C293.56 73.812 293.476 73.2293 293.307 72.938C293.154 72.6467 292.855 72.501 292.41 72.501C292.241 72.501 292.065 72.5623 291.881 72.685C291.712 72.7923 291.551 72.9533 291.398 73.168C291.245 73.3673 291.122 73.6203 291.03 73.927C290.938 74.2337 290.892 74.5863 290.892 74.985V82H289.374ZM305.474 74.916C305.121 74.916 304.807 74.7857 304.531 74.525C304.255 74.2643 304.117 73.9577 304.117 73.605C304.117 73.237 304.255 72.9227 304.531 72.662C304.807 72.4013 305.121 72.271 305.474 72.271C305.827 72.271 306.141 72.4013 306.417 72.662C306.708 72.9227 306.854 73.237 306.854 73.605C306.854 73.9577 306.716 74.2643 306.44 74.525C306.164 74.7857 305.842 74.916 305.474 74.916ZM305.474 82.253C305.091 82.253 304.769 82.1303 304.508 81.885C304.247 81.6243 304.117 81.31 304.117 80.942C304.117 80.574 304.255 80.2597 304.531 79.999C304.807 79.7383 305.121 79.608 305.474 79.608C305.827 79.608 306.141 79.7383 306.417 79.999C306.708 80.2597 306.854 80.574 306.854 80.942C306.854 81.2947 306.716 81.6013 306.44 81.862C306.179 82.1227 305.857 82.253 305.474 82.253Z" fill="black"/>
<path d="M1476.65 915.253C1475.47 915.253 1474.55 914.985 1473.89 914.448C1473.24 913.896 1472.92 913.183 1472.92 912.309C1472.92 911.726 1473.05 911.205 1473.31 910.745C1473.59 910.27 1473.97 909.863 1474.46 909.526C1474.97 909.189 1475.57 908.928 1476.28 908.744C1476.98 908.545 1477.78 908.445 1478.67 908.445C1478.85 908.445 1479.05 908.453 1479.25 908.468C1479.46 908.468 1479.68 908.476 1479.91 908.491C1480.16 908.506 1480.4 908.522 1480.65 908.537L1480.72 910.17C1480.5 910.139 1480.27 910.116 1480.03 910.101C1479.8 910.086 1479.57 910.078 1479.34 910.078C1479.11 910.078 1478.89 910.078 1478.69 910.078C1478.1 910.078 1477.57 910.124 1477.13 910.216C1476.7 910.293 1476.34 910.415 1476.05 910.584C1475.77 910.753 1475.57 910.96 1475.43 911.205C1475.29 911.45 1475.22 911.734 1475.22 912.056C1475.22 912.317 1475.27 912.547 1475.36 912.746C1475.45 912.93 1475.57 913.076 1475.73 913.183C1475.89 913.29 1476.09 913.375 1476.3 913.436C1476.53 913.482 1476.78 913.505 1477.04 913.505C1477.54 913.505 1477.99 913.421 1478.37 913.252C1478.75 913.083 1479.08 912.838 1479.34 912.516C1479.61 912.179 1479.82 911.765 1479.96 911.274C1480.1 910.768 1480.17 910.178 1480.17 909.503C1480.17 908.568 1480.06 907.839 1479.84 907.318C1479.64 906.797 1479.34 906.436 1478.95 906.237C1478.55 906.038 1478.05 905.938 1477.45 905.938C1476.96 905.938 1476.49 906.022 1476.03 906.191C1475.58 906.344 1475.14 906.636 1474.71 907.065L1473.5 905.685C1474.08 905.133 1474.71 904.734 1475.4 904.489C1476.11 904.244 1476.83 904.121 1477.57 904.121C1478.24 904.121 1478.86 904.205 1479.43 904.374C1480.01 904.527 1480.52 904.788 1480.95 905.156C1481.39 905.524 1481.73 906.022 1481.96 906.651C1482.2 907.28 1482.33 908.077 1482.33 909.043V915H1479.94V913.689C1479.74 913.996 1479.51 914.256 1479.27 914.471C1479.02 914.67 1478.75 914.831 1478.46 914.954C1478.19 915.061 1477.9 915.138 1477.59 915.184C1477.28 915.23 1476.97 915.253 1476.65 915.253ZM1489.96 915.253C1489.18 915.253 1488.45 915.123 1487.78 914.862C1487.12 914.586 1486.54 914.203 1486.05 913.712C1485.58 913.206 1485.2 912.623 1484.93 911.964C1484.67 911.289 1484.54 910.553 1484.54 909.756C1484.54 908.959 1484.67 908.223 1484.93 907.548C1485.2 906.858 1485.58 906.26 1486.05 905.754C1486.54 905.248 1487.12 904.857 1487.78 904.581C1488.45 904.29 1489.17 904.144 1489.94 904.144C1490.89 904.144 1491.72 904.32 1492.42 904.673C1493.14 905.026 1493.73 905.524 1494.17 906.168L1492.86 907.548L1492.7 907.709L1492.56 907.571C1492.55 907.448 1492.52 907.333 1492.47 907.226C1492.44 907.103 1492.34 906.942 1492.17 906.743C1491.86 906.467 1491.53 906.275 1491.16 906.168C1490.79 906.045 1490.37 905.984 1489.89 905.984C1489.5 905.984 1489.11 906.068 1488.74 906.237C1488.39 906.406 1488.07 906.651 1487.78 906.973C1487.5 907.295 1487.28 907.686 1487.11 908.146C1486.94 908.606 1486.86 909.12 1486.86 909.687C1486.86 910.239 1486.94 910.745 1487.11 911.205C1487.28 911.65 1487.51 912.033 1487.8 912.355C1488.09 912.662 1488.43 912.907 1488.81 913.091C1489.21 913.26 1489.63 913.344 1490.06 913.344C1490.39 913.344 1490.71 913.306 1491.02 913.229C1491.34 913.137 1491.65 912.999 1491.94 912.815C1492.23 912.616 1492.51 912.363 1492.77 912.056L1494.03 913.528C1493.48 914.126 1492.85 914.563 1492.13 914.839C1491.42 915.115 1490.7 915.253 1489.96 915.253ZM1501.88 915.207C1501.25 915.207 1500.7 915.107 1500.24 914.908C1499.8 914.693 1499.44 914.356 1499.16 913.896C1498.9 913.436 1498.72 912.838 1498.61 912.102C1498.5 911.366 1498.47 910.469 1498.5 909.411L1498.8 901.775L1501.14 901.476L1501.37 901.453L1501.39 901.66C1501.32 901.767 1501.25 901.875 1501.19 901.982C1501.14 902.089 1501.1 902.273 1501.07 902.534L1500.84 905.501L1500.93 905.754L1500.77 909.411C1500.73 910.454 1500.76 911.266 1500.87 911.849C1500.97 912.416 1501.16 912.815 1501.42 913.045C1501.68 913.26 1501.99 913.367 1502.36 913.367C1502.85 913.367 1503.29 913.267 1503.67 913.068C1504.07 912.869 1504.46 912.623 1504.84 912.332L1505.35 914.034C1504.83 914.417 1504.28 914.709 1503.72 914.908C1503.15 915.107 1502.54 915.207 1501.88 915.207ZM1496.43 904.351H1504.45L1504.43 906.191H1496.43V904.351ZM1508.57 915V913.183H1511.22V906.168H1508.69V904.351H1513.52V913.183H1515.93V915H1508.57ZM1512.23 902.442C1511.81 902.442 1511.46 902.304 1511.17 902.028C1510.89 901.737 1510.76 901.399 1510.76 901.016C1510.76 900.602 1510.89 900.257 1511.17 899.981C1511.45 899.705 1511.8 899.567 1512.23 899.567C1512.63 899.567 1512.97 899.713 1513.26 900.004C1513.57 900.295 1513.72 900.633 1513.72 901.016C1513.72 901.399 1513.57 901.737 1513.26 902.028C1512.97 902.304 1512.63 902.442 1512.23 902.442ZM1522.81 915L1518.76 904.351H1521.13L1524.07 912.355H1523.73L1525.31 908.606C1525.62 907.824 1525.87 907.08 1526.07 906.375C1526.27 905.67 1526.4 904.995 1526.46 904.351H1528.6C1528.51 905.026 1528.33 905.746 1528.07 906.513C1527.83 907.264 1527.54 908.046 1527.2 908.859L1524.62 915H1522.81ZM1534.15 915.253C1532.97 915.253 1532.05 914.985 1531.39 914.448C1530.74 913.896 1530.42 913.183 1530.42 912.309C1530.42 911.726 1530.55 911.205 1530.81 910.745C1531.09 910.27 1531.47 909.863 1531.96 909.526C1532.47 909.189 1533.07 908.928 1533.78 908.744C1534.48 908.545 1535.28 908.445 1536.17 908.445C1536.35 908.445 1536.55 908.453 1536.75 908.468C1536.96 908.468 1537.18 908.476 1537.41 908.491C1537.66 908.506 1537.9 908.522 1538.15 908.537L1538.22 910.17C1538 910.139 1537.77 910.116 1537.53 910.101C1537.3 910.086 1537.07 910.078 1536.84 910.078C1536.61 910.078 1536.39 910.078 1536.19 910.078C1535.6 910.078 1535.07 910.124 1534.63 910.216C1534.2 910.293 1533.84 910.415 1533.55 910.584C1533.27 910.753 1533.07 910.96 1532.93 911.205C1532.79 911.45 1532.72 911.734 1532.72 912.056C1532.72 912.317 1532.77 912.547 1532.86 912.746C1532.95 912.93 1533.07 913.076 1533.23 913.183C1533.39 913.29 1533.59 913.375 1533.8 913.436C1534.03 913.482 1534.28 913.505 1534.54 913.505C1535.04 913.505 1535.49 913.421 1535.87 913.252C1536.25 913.083 1536.58 912.838 1536.84 912.516C1537.11 912.179 1537.32 911.765 1537.46 911.274C1537.6 910.768 1537.67 910.178 1537.67 909.503C1537.67 908.568 1537.56 907.839 1537.34 907.318C1537.14 906.797 1536.84 906.436 1536.45 906.237C1536.05 906.038 1535.55 905.938 1534.95 905.938C1534.46 905.938 1533.99 906.022 1533.53 906.191C1533.08 906.344 1532.64 906.636 1532.21 907.065L1531 905.685C1531.58 905.133 1532.21 904.734 1532.9 904.489C1533.61 904.244 1534.33 904.121 1535.07 904.121C1535.74 904.121 1536.36 904.205 1536.93 904.374C1537.51 904.527 1538.02 904.788 1538.45 905.156C1538.89 905.524 1539.23 906.022 1539.46 906.651C1539.7 907.28 1539.83 908.077 1539.83 909.043V915H1537.44V913.689C1537.24 913.996 1537.01 914.256 1536.77 914.471C1536.52 914.67 1536.25 914.831 1535.96 914.954C1535.69 915.061 1535.4 915.138 1535.09 915.184C1534.78 915.23 1534.47 915.253 1534.15 915.253ZM1547.88 915.207C1547.25 915.207 1546.7 915.107 1546.24 914.908C1545.8 914.693 1545.44 914.356 1545.16 913.896C1544.9 913.436 1544.72 912.838 1544.61 912.102C1544.5 911.366 1544.47 910.469 1544.5 909.411L1544.8 901.775L1547.14 901.476L1547.37 901.453L1547.39 901.66C1547.32 901.767 1547.25 901.875 1547.19 901.982C1547.14 902.089 1547.1 902.273 1547.07 902.534L1546.84 905.501L1546.93 905.754L1546.77 909.411C1546.73 910.454 1546.76 911.266 1546.87 911.849C1546.97 912.416 1547.16 912.815 1547.42 913.045C1547.68 913.26 1547.99 913.367 1548.36 913.367C1548.85 913.367 1549.29 913.267 1549.67 913.068C1550.07 912.869 1550.46 912.623 1550.84 912.332L1551.35 914.034C1550.83 914.417 1550.28 914.709 1549.72 914.908C1549.15 915.107 1548.54 915.207 1547.88 915.207ZM1542.43 904.351H1550.45L1550.43 906.191H1542.43V904.351ZM1558.73 915.253C1557.97 915.253 1557.26 915.13 1556.62 914.885C1555.97 914.64 1555.41 914.287 1554.94 913.827C1554.48 913.352 1554.12 912.769 1553.86 912.079C1553.6 911.389 1553.47 910.607 1553.47 909.733C1553.47 908.844 1553.6 908.054 1553.86 907.364C1554.12 906.659 1554.47 906.068 1554.92 905.593C1555.38 905.118 1555.9 904.75 1556.5 904.489C1557.12 904.228 1557.77 904.098 1558.46 904.098C1559.06 904.098 1559.62 904.205 1560.16 904.42C1560.71 904.635 1561.19 904.957 1561.59 905.386C1562 905.8 1562.32 906.329 1562.55 906.973C1562.8 907.617 1562.92 908.368 1562.92 909.227C1562.92 909.38 1562.92 909.557 1562.92 909.756C1562.92 909.94 1562.91 910.101 1562.9 910.239H1555.67C1555.7 910.791 1555.81 911.274 1556 911.688C1556.18 912.087 1556.41 912.416 1556.69 912.677C1556.98 912.938 1557.31 913.129 1557.68 913.252C1558.04 913.375 1558.43 913.436 1558.83 913.436C1559.18 913.436 1559.5 913.405 1559.79 913.344C1560.1 913.267 1560.39 913.152 1560.67 912.999C1560.94 912.846 1561.19 912.639 1561.42 912.378L1562.62 913.551C1562.3 913.934 1561.94 914.256 1561.54 914.517C1561.14 914.762 1560.7 914.946 1560.23 915.069C1559.77 915.192 1559.27 915.253 1558.73 915.253ZM1555.72 908.514H1560.69C1560.69 908.085 1560.63 907.709 1560.53 907.387C1560.42 907.065 1560.26 906.789 1560.04 906.559C1559.84 906.329 1559.6 906.16 1559.31 906.053C1559.02 905.93 1558.69 905.869 1558.34 905.869C1558 905.869 1557.69 905.923 1557.4 906.03C1557.12 906.137 1556.87 906.298 1556.64 906.513C1556.41 906.728 1556.21 907.004 1556.04 907.341C1555.89 907.663 1555.78 908.054 1555.72 908.514ZM1577.78 915.023L1575.78 904.351H1577.73L1579.11 912.056L1580.74 905.478H1581.99L1583.92 912.01C1584.07 910.875 1584.2 909.932 1584.31 909.181C1584.42 908.414 1584.49 907.778 1584.54 907.272C1584.59 906.751 1584.62 906.314 1584.63 905.961C1584.65 905.593 1584.65 905.233 1584.65 904.88V904.351H1586.66C1586.55 905.501 1586.41 906.682 1586.24 907.893C1586.07 909.104 1585.88 910.316 1585.67 911.527C1585.45 912.723 1585.23 913.888 1585 915.023H1582.98L1581.34 908.882L1579.8 915.023H1577.78ZM1589.07 915V913.183H1591.72V906.168H1589.19V904.351H1594.02V913.183H1596.43V915H1589.07ZM1592.73 902.442C1592.31 902.442 1591.96 902.304 1591.67 902.028C1591.39 901.737 1591.26 901.399 1591.26 901.016C1591.26 900.602 1591.39 900.257 1591.67 899.981C1591.95 899.705 1592.3 899.567 1592.73 899.567C1593.13 899.567 1593.47 899.713 1593.76 900.004C1594.07 900.295 1594.22 900.633 1594.22 901.016C1594.22 901.399 1594.07 901.737 1593.76 902.028C1593.47 902.304 1593.13 902.442 1592.73 902.442ZM1599.88 915V904.351H1602.18V905.984C1602.44 905.601 1602.73 905.271 1603.05 904.995C1603.38 904.719 1603.74 904.504 1604.14 904.351C1604.53 904.182 1604.96 904.098 1605.42 904.098C1606.02 904.098 1606.57 904.251 1607.08 904.558C1607.59 904.865 1607.99 905.348 1608.3 906.007C1608.6 906.651 1608.76 907.51 1608.76 908.583V915H1606.48V908.606C1606.48 907.977 1606.41 907.464 1606.27 907.065C1606.14 906.666 1605.94 906.375 1605.68 906.191C1605.43 906.007 1605.13 905.915 1604.78 905.915C1604.47 905.915 1604.17 905.984 1603.86 906.122C1603.55 906.26 1603.27 906.452 1603.01 906.697C1602.76 906.927 1602.56 907.218 1602.41 907.571C1602.26 907.908 1602.18 908.292 1602.18 908.721V915H1599.88ZM1615.24 915.253C1614.68 915.253 1614.12 915.138 1613.59 914.908C1613.07 914.663 1612.6 914.31 1612.19 913.85C1611.77 913.39 1611.44 912.807 1611.2 912.102C1610.97 911.381 1610.85 910.553 1610.85 909.618C1610.85 908.667 1610.97 907.847 1611.2 907.157C1611.44 906.467 1611.77 905.9 1612.19 905.455C1612.6 904.995 1613.07 904.658 1613.61 904.443C1614.15 904.213 1614.71 904.098 1615.29 904.098C1615.7 904.098 1616.08 904.152 1616.42 904.259C1616.77 904.366 1617.08 904.527 1617.36 904.742C1617.64 904.957 1617.86 905.225 1618.03 905.547V899.613H1620.26H1620.47V899.82C1620.39 899.912 1620.33 900.012 1620.3 900.119C1620.27 900.226 1620.27 900.41 1620.28 900.671V913.505C1620.28 913.75 1620.29 914.003 1620.3 914.264C1620.33 914.509 1620.4 914.755 1620.51 915H1618.26C1618.18 914.831 1618.13 914.678 1618.1 914.54C1618.07 914.402 1618.05 914.264 1618.05 914.126C1618.05 913.988 1618.05 913.842 1618.05 913.689C1617.84 914.011 1617.59 914.295 1617.31 914.54C1617.04 914.77 1616.72 914.946 1616.37 915.069C1616.02 915.192 1615.64 915.253 1615.24 915.253ZM1615.64 913.367C1616.05 913.367 1616.4 913.283 1616.69 913.114C1616.98 912.945 1617.22 912.7 1617.41 912.378C1617.59 912.056 1617.73 911.665 1617.82 911.205C1617.91 910.745 1617.96 910.224 1617.96 909.641C1617.96 908.859 1617.87 908.192 1617.71 907.64C1617.54 907.073 1617.27 906.643 1616.9 906.352C1616.55 906.045 1616.1 905.892 1615.54 905.892C1615.14 905.892 1614.79 905.976 1614.49 906.145C1614.18 906.314 1613.92 906.559 1613.7 906.881C1613.5 907.188 1613.35 907.563 1613.24 908.008C1613.14 908.453 1613.08 908.951 1613.08 909.503C1613.08 910.285 1613.19 910.967 1613.4 911.55C1613.63 912.133 1613.94 912.585 1614.32 912.907C1614.71 913.214 1615.14 913.367 1615.64 913.367ZM1627.25 915.23C1626.28 915.23 1625.43 915 1624.67 914.54C1623.92 914.065 1623.32 913.413 1622.88 912.585C1622.44 911.742 1622.21 910.776 1622.21 909.687C1622.21 908.614 1622.44 907.663 1622.88 906.835C1623.32 905.992 1623.92 905.332 1624.67 904.857C1625.43 904.366 1626.28 904.121 1627.25 904.121C1628.2 904.121 1629.05 904.366 1629.8 904.857C1630.57 905.332 1631.18 905.992 1631.62 906.835C1632.06 907.663 1632.29 908.614 1632.29 909.687C1632.29 910.76 1632.06 911.719 1631.62 912.562C1631.18 913.39 1630.57 914.042 1629.8 914.517C1629.05 914.992 1628.2 915.23 1627.25 915.23ZM1627.25 913.367C1627.77 913.367 1628.23 913.214 1628.63 912.907C1629.04 912.585 1629.37 912.148 1629.6 911.596C1629.83 911.044 1629.94 910.4 1629.94 909.664C1629.94 908.913 1629.83 908.261 1629.6 907.709C1629.37 907.157 1629.04 906.728 1628.63 906.421C1628.23 906.114 1627.77 905.961 1627.25 905.961C1626.73 905.961 1626.26 906.114 1625.85 906.421C1625.45 906.728 1625.13 907.157 1624.9 907.709C1624.67 908.261 1624.56 908.913 1624.56 909.664C1624.56 910.4 1624.67 911.044 1624.9 911.596C1625.13 912.148 1625.45 912.585 1625.85 912.907C1626.26 913.214 1626.73 913.367 1627.25 913.367ZM1635.28 915.023L1633.28 904.351H1635.23L1636.61 912.056L1638.24 905.478H1639.49L1641.42 912.01C1641.57 910.875 1641.7 909.932 1641.81 909.181C1641.92 908.414 1641.99 907.778 1642.04 907.272C1642.09 906.751 1642.12 906.314 1642.13 905.961C1642.15 905.593 1642.15 905.233 1642.15 904.88V904.351H1644.16C1644.05 905.501 1643.91 906.682 1643.74 907.893C1643.57 909.104 1643.38 910.316 1643.17 911.527C1642.95 912.723 1642.73 913.888 1642.5 915.023H1640.48L1638.84 908.882L1637.3 915.023H1635.28ZM1650.41 915.253C1649.77 915.253 1649.16 915.192 1648.59 915.069C1648.03 914.946 1647.49 914.762 1646.98 914.517C1646.49 914.272 1646.04 913.957 1645.63 913.574L1646.69 911.642L1646.82 911.435L1646.98 911.527C1647.01 911.65 1647.05 911.78 1647.1 911.918C1647.15 912.041 1647.25 912.194 1647.42 912.378C1647.79 912.7 1648.21 912.961 1648.69 913.16C1649.16 913.344 1649.74 913.436 1650.43 913.436C1650.91 913.436 1651.31 913.382 1651.63 913.275C1651.97 913.152 1652.23 912.991 1652.41 912.792C1652.6 912.577 1652.69 912.34 1652.69 912.079C1652.69 911.88 1652.63 911.711 1652.53 911.573C1652.44 911.42 1652.29 911.282 1652.09 911.159C1651.89 911.021 1651.63 910.891 1651.31 910.768C1650.99 910.63 1650.6 910.5 1650.14 910.377C1649.35 910.147 1648.67 909.886 1648.09 909.595C1647.51 909.288 1647.05 908.928 1646.73 908.514C1646.41 908.1 1646.25 907.609 1646.25 907.042C1646.25 906.475 1646.41 905.976 1646.73 905.547C1647.07 905.102 1647.54 904.75 1648.16 904.489C1648.77 904.228 1649.5 904.098 1650.34 904.098C1650.8 904.098 1651.23 904.136 1651.63 904.213C1652.04 904.274 1652.42 904.374 1652.76 904.512C1653.11 904.65 1653.44 904.826 1653.75 905.041C1654.05 905.24 1654.34 905.478 1654.62 905.754L1653.45 907.318L1653.31 907.502L1653.15 907.364C1653.13 907.241 1653.09 907.126 1653.03 907.019C1652.99 906.912 1652.88 906.774 1652.71 906.605C1652.37 906.36 1652.01 906.176 1651.61 906.053C1651.21 905.93 1650.8 905.869 1650.39 905.869C1649.85 905.869 1649.38 905.961 1648.96 906.145C1648.56 906.329 1648.36 906.605 1648.36 906.973C1648.36 907.188 1648.45 907.387 1648.62 907.571C1648.8 907.755 1649.09 907.939 1649.49 908.123C1649.89 908.292 1650.43 908.468 1651.12 908.652C1652 908.882 1652.7 909.15 1653.24 909.457C1653.78 909.748 1654.17 910.093 1654.41 910.492C1654.67 910.891 1654.8 911.358 1654.8 911.895C1654.8 912.493 1654.64 913.053 1654.3 913.574C1653.98 914.08 1653.49 914.486 1652.83 914.793C1652.17 915.1 1651.36 915.253 1650.41 915.253ZM1672.22 918.473V900.004H1674.31V918.473H1672.22ZM1691.7 918.841V904.351H1693.97V906.053C1694.17 905.593 1694.43 905.225 1694.73 904.949C1695.05 904.658 1695.41 904.451 1695.79 904.328C1696.17 904.19 1696.59 904.121 1697.03 904.121C1697.61 904.121 1698.16 904.244 1698.67 904.489C1699.19 904.719 1699.65 905.064 1700.05 905.524C1700.44 905.984 1700.76 906.559 1700.99 907.249C1701.22 907.939 1701.33 908.744 1701.33 909.664C1701.33 910.599 1701.21 911.42 1700.97 912.125C1700.72 912.83 1700.39 913.421 1699.98 913.896C1699.58 914.356 1699.12 914.701 1698.6 914.931C1698.07 915.161 1697.54 915.276 1696.99 915.276C1696.6 915.276 1696.22 915.222 1695.84 915.115C1695.47 915.023 1695.13 914.877 1694.82 914.678C1694.52 914.463 1694.25 914.218 1694.02 913.942V918.841H1691.7ZM1696.41 913.436C1696.76 913.436 1697.09 913.375 1697.4 913.252C1697.71 913.114 1697.98 912.907 1698.23 912.631C1698.47 912.34 1698.67 911.949 1698.8 911.458C1698.94 910.952 1699.01 910.339 1699.01 909.618C1699.01 908.851 1698.91 908.2 1698.71 907.663C1698.53 907.126 1698.25 906.712 1697.88 906.421C1697.53 906.13 1697.1 905.976 1696.6 905.961C1696.21 905.946 1695.86 906.015 1695.54 906.168C1695.22 906.306 1694.94 906.536 1694.71 906.858C1694.48 907.165 1694.3 907.579 1694.18 908.1C1694.07 908.606 1694.02 909.212 1694.02 909.917C1694.02 910.392 1694.05 910.822 1694.11 911.205C1694.19 911.573 1694.3 911.903 1694.43 912.194C1694.57 912.47 1694.73 912.7 1694.92 912.884C1695.12 913.068 1695.34 913.206 1695.58 913.298C1695.84 913.39 1696.12 913.436 1696.41 913.436ZM1708.23 915.253C1707.47 915.253 1706.76 915.13 1706.12 914.885C1705.47 914.64 1704.91 914.287 1704.44 913.827C1703.98 913.352 1703.62 912.769 1703.36 912.079C1703.1 911.389 1702.97 910.607 1702.97 909.733C1702.97 908.844 1703.1 908.054 1703.36 907.364C1703.62 906.659 1703.97 906.068 1704.42 905.593C1704.88 905.118 1705.4 904.75 1706 904.489C1706.62 904.228 1707.27 904.098 1707.96 904.098C1708.56 904.098 1709.12 904.205 1709.66 904.42C1710.21 904.635 1710.69 904.957 1711.09 905.386C1711.5 905.8 1711.82 906.329 1712.05 906.973C1712.3 907.617 1712.42 908.368 1712.42 909.227C1712.42 909.38 1712.42 909.557 1712.42 909.756C1712.42 909.94 1712.41 910.101 1712.4 910.239H1705.17C1705.2 910.791 1705.31 911.274 1705.5 911.688C1705.68 912.087 1705.91 912.416 1706.19 912.677C1706.48 912.938 1706.81 913.129 1707.18 913.252C1707.54 913.375 1707.93 913.436 1708.33 913.436C1708.68 913.436 1709 913.405 1709.29 913.344C1709.6 913.267 1709.89 913.152 1710.17 912.999C1710.44 912.846 1710.69 912.639 1710.92 912.378L1712.12 913.551C1711.8 913.934 1711.44 914.256 1711.04 914.517C1710.64 914.762 1710.2 914.946 1709.73 915.069C1709.27 915.192 1708.77 915.253 1708.23 915.253ZM1705.22 908.514H1710.19C1710.19 908.085 1710.13 907.709 1710.03 907.387C1709.92 907.065 1709.76 906.789 1709.54 906.559C1709.34 906.329 1709.1 906.16 1708.81 906.053C1708.52 905.93 1708.19 905.869 1707.84 905.869C1707.5 905.869 1707.19 905.923 1706.9 906.03C1706.62 906.137 1706.37 906.298 1706.14 906.513C1705.91 906.728 1705.71 907.004 1705.54 907.341C1705.39 907.663 1705.28 908.054 1705.22 908.514ZM1714.88 915V904.351H1717.18V905.984C1717.44 905.601 1717.73 905.271 1718.05 904.995C1718.38 904.719 1718.74 904.504 1719.14 904.351C1719.53 904.182 1719.96 904.098 1720.42 904.098C1721.02 904.098 1721.57 904.251 1722.08 904.558C1722.59 904.865 1722.99 905.348 1723.3 906.007C1723.6 906.651 1723.76 907.51 1723.76 908.583V915H1721.48V908.606C1721.48 907.977 1721.41 907.464 1721.27 907.065C1721.14 906.666 1720.94 906.375 1720.68 906.191C1720.43 906.007 1720.13 905.915 1719.78 905.915C1719.47 905.915 1719.17 905.984 1718.86 906.122C1718.55 906.26 1718.27 906.452 1718.01 906.697C1717.76 906.927 1717.56 907.218 1717.41 907.571C1717.26 907.908 1717.18 908.292 1717.18 908.721V915H1714.88ZM1730.24 915.253C1729.68 915.253 1729.12 915.138 1728.59 914.908C1728.07 914.663 1727.6 914.31 1727.19 913.85C1726.77 913.39 1726.44 912.807 1726.2 912.102C1725.97 911.381 1725.85 910.553 1725.85 909.618C1725.85 908.667 1725.97 907.847 1726.2 907.157C1726.44 906.467 1726.77 905.9 1727.19 905.455C1727.6 904.995 1728.07 904.658 1728.61 904.443C1729.15 904.213 1729.71 904.098 1730.29 904.098C1730.7 904.098 1731.08 904.152 1731.42 904.259C1731.77 904.366 1732.08 904.527 1732.36 904.742C1732.64 904.957 1732.86 905.225 1733.03 905.547V899.613H1735.26H1735.47V899.82C1735.39 899.912 1735.33 900.012 1735.3 900.119C1735.27 900.226 1735.27 900.41 1735.28 900.671V913.505C1735.28 913.75 1735.29 914.003 1735.3 914.264C1735.33 914.509 1735.4 914.755 1735.51 915H1733.26C1733.18 914.831 1733.13 914.678 1733.1 914.54C1733.07 914.402 1733.05 914.264 1733.05 914.126C1733.05 913.988 1733.05 913.842 1733.05 913.689C1732.84 914.011 1732.59 914.295 1732.31 914.54C1732.04 914.77 1731.72 914.946 1731.37 915.069C1731.02 915.192 1730.64 915.253 1730.24 915.253ZM1730.64 913.367C1731.05 913.367 1731.4 913.283 1731.69 913.114C1731.98 912.945 1732.22 912.7 1732.41 912.378C1732.59 912.056 1732.73 911.665 1732.82 911.205C1732.91 910.745 1732.96 910.224 1732.96 909.641C1732.96 908.859 1732.87 908.192 1732.71 907.64C1732.54 907.073 1732.27 906.643 1731.9 906.352C1731.55 906.045 1731.1 905.892 1730.54 905.892C1730.14 905.892 1729.79 905.976 1729.49 906.145C1729.18 906.314 1728.92 906.559 1728.7 906.881C1728.5 907.188 1728.35 907.563 1728.24 908.008C1728.14 908.453 1728.08 908.951 1728.08 909.503C1728.08 910.285 1728.19 910.967 1728.4 911.55C1728.63 912.133 1728.94 912.585 1729.32 912.907C1729.71 913.214 1730.14 913.367 1730.64 913.367ZM1738.57 915V913.183H1741.22V906.168H1738.69V904.351H1743.52V913.183H1745.93V915H1738.57ZM1742.23 902.442C1741.81 902.442 1741.46 902.304 1741.17 902.028C1740.89 901.737 1740.76 901.399 1740.76 901.016C1740.76 900.602 1740.89 900.257 1741.17 899.981C1741.45 899.705 1741.8 899.567 1742.23 899.567C1742.63 899.567 1742.97 899.713 1743.26 900.004C1743.57 900.295 1743.72 900.633 1743.72 901.016C1743.72 901.399 1743.57 901.737 1743.26 902.028C1742.97 902.304 1742.63 902.442 1742.23 902.442ZM1749.38 915V904.351H1751.68V905.984C1751.94 905.601 1752.23 905.271 1752.55 904.995C1752.88 904.719 1753.24 904.504 1753.64 904.351C1754.03 904.182 1754.46 904.098 1754.92 904.098C1755.52 904.098 1756.07 904.251 1756.58 904.558C1757.09 904.865 1757.49 905.348 1757.8 906.007C1758.1 906.651 1758.26 907.51 1758.26 908.583V915H1755.98V908.606C1755.98 907.977 1755.91 907.464 1755.77 907.065C1755.64 906.666 1755.44 906.375 1755.18 906.191C1754.93 906.007 1754.63 905.915 1754.28 905.915C1753.97 905.915 1753.67 905.984 1753.36 906.122C1753.05 906.26 1752.77 906.452 1752.51 906.697C1752.26 906.927 1752.06 907.218 1751.91 907.571C1751.76 907.908 1751.68 908.292 1751.68 908.721V915H1749.38ZM1765.04 919.048C1764.31 919.048 1763.64 918.987 1763.04 918.864C1762.44 918.741 1761.93 918.557 1761.5 918.312C1761.09 918.082 1760.77 917.791 1760.56 917.438C1760.34 917.101 1760.24 916.717 1760.24 916.288C1760.24 915.889 1760.33 915.529 1760.51 915.207C1760.7 914.885 1760.94 914.609 1761.25 914.379C1761.55 914.134 1761.89 913.95 1762.26 913.827L1763.27 914.287C1763.03 914.44 1762.81 914.594 1762.63 914.747C1762.44 914.9 1762.3 915.069 1762.19 915.253C1762.1 915.452 1762.05 915.682 1762.05 915.943C1762.05 916.173 1762.13 916.372 1762.28 916.541C1762.44 916.71 1762.65 916.848 1762.93 916.955C1763.2 917.062 1763.53 917.147 1763.92 917.208C1764.3 917.269 1764.73 917.3 1765.2 917.3C1765.83 917.3 1766.35 917.239 1766.77 917.116C1767.18 917.009 1767.49 916.848 1767.69 916.633C1767.9 916.418 1768.01 916.173 1768.01 915.897C1768.01 915.621 1767.95 915.399 1767.83 915.23C1767.7 915.077 1767.47 914.962 1767.14 914.885C1766.8 914.793 1766.31 914.747 1765.66 914.747C1765.14 914.747 1764.64 914.732 1764.17 914.701C1763.71 914.655 1763.28 914.578 1762.88 914.471C1762.5 914.364 1762.16 914.226 1761.87 914.057C1761.58 913.888 1761.35 913.681 1761.18 913.436C1761.03 913.175 1760.95 912.869 1760.95 912.516C1760.95 912.056 1761.09 911.642 1761.36 911.274C1761.64 910.891 1761.98 910.546 1762.4 910.239L1763.43 910.883C1763.3 911.036 1763.17 911.167 1763.07 911.274C1762.96 911.381 1762.87 911.489 1762.81 911.596C1762.75 911.688 1762.72 911.803 1762.72 911.941C1762.72 912.14 1762.84 912.309 1763.07 912.447C1763.3 912.585 1763.66 912.685 1764.17 912.746C1764.69 912.807 1765.38 912.838 1766.24 912.838C1766.96 912.838 1767.56 912.915 1768.03 913.068C1768.52 913.206 1768.91 913.405 1769.18 913.666C1769.46 913.927 1769.65 914.226 1769.76 914.563C1769.88 914.885 1769.94 915.245 1769.94 915.644C1769.94 916.073 1769.85 916.487 1769.67 916.886C1769.48 917.3 1769.19 917.668 1768.79 917.99C1768.41 918.312 1767.9 918.565 1767.27 918.749C1766.66 918.948 1765.92 919.048 1765.04 919.048ZM1764.74 911.412C1763.99 911.412 1763.33 911.251 1762.74 910.929C1762.16 910.592 1761.7 910.147 1761.36 909.595C1761.04 909.043 1760.88 908.422 1760.88 907.732C1760.88 907.042 1761.04 906.421 1761.36 905.869C1761.7 905.302 1762.16 904.857 1762.74 904.535C1763.33 904.198 1763.99 904.029 1764.74 904.029C1765.51 904.029 1766.19 904.198 1766.77 904.535C1767.35 904.857 1767.8 905.302 1768.13 905.869C1768.46 906.421 1768.63 907.042 1768.63 907.732C1768.63 908.422 1768.46 909.043 1768.13 909.595C1767.8 910.147 1767.35 910.592 1766.77 910.929C1766.19 911.251 1765.51 911.412 1764.74 911.412ZM1764.74 909.687C1765.13 909.687 1765.46 909.603 1765.76 909.434C1766.05 909.265 1766.28 909.035 1766.45 908.744C1766.61 908.437 1766.7 908.1 1766.7 907.732C1766.7 907.349 1766.61 907.019 1766.45 906.743C1766.28 906.452 1766.04 906.222 1765.73 906.053C1765.44 905.884 1765.11 905.8 1764.74 905.8C1764.39 905.8 1764.07 905.884 1763.78 906.053C1763.49 906.222 1763.25 906.452 1763.07 906.743C1762.9 907.034 1762.81 907.364 1762.81 907.732C1762.81 908.085 1762.9 908.414 1763.07 908.721C1763.23 909.012 1763.46 909.25 1763.76 909.434C1764.05 909.603 1764.38 909.687 1764.74 909.687ZM1767.99 906.237L1767.11 905.156C1767.56 904.788 1768.04 904.512 1768.56 904.328C1769.1 904.129 1769.69 904.052 1770.33 904.098L1770.56 905.731C1770.09 905.67 1769.63 905.677 1769.18 905.754C1768.74 905.815 1768.34 905.976 1767.99 906.237Z" fill="black"/>
<path d="M85.106 912.608V908.307H81.035V906.904H85.106V902.971H86.555V906.904H90.488V908.307H86.555V912.608H85.106ZM108.106 912.608V908.307H104.035V906.904H108.106V902.971H109.555V906.904H113.488V908.307H109.555V912.608H108.106ZM129.013 917.047V899.59H135.591V900.97H130.485V915.736H135.614V917.047H129.013ZM158.614 917.047H152.013V915.736H157.142V900.97H152.036V899.59H158.614V917.047ZM177.773 915.23C177.19 915.23 176.631 915.169 176.094 915.046C175.573 914.923 175.074 914.739 174.599 914.494C174.139 914.249 173.71 913.942 173.311 913.574L174.231 912.01L174.369 911.803L174.507 911.895C174.538 912.018 174.568 912.148 174.599 912.286C174.645 912.409 174.752 912.562 174.921 912.746C175.243 913.068 175.626 913.336 176.071 913.551C176.531 913.75 177.114 913.85 177.819 913.85C178.386 913.85 178.862 913.781 179.245 913.643C179.644 913.505 179.95 913.313 180.165 913.068C180.38 912.807 180.487 912.508 180.487 912.171C180.487 911.941 180.441 911.742 180.349 911.573C180.257 911.389 180.104 911.22 179.889 911.067C179.69 910.914 179.421 910.76 179.084 910.607C178.747 910.454 178.333 910.3 177.842 910.147C177.045 909.917 176.347 909.649 175.749 909.342C175.151 909.035 174.691 908.683 174.369 908.284C174.047 907.87 173.886 907.402 173.886 906.881C173.886 906.344 174.032 905.884 174.323 905.501C174.614 905.102 175.044 904.796 175.611 904.581C176.194 904.351 176.907 904.236 177.75 904.236C178.241 904.236 178.685 904.274 179.084 904.351C179.483 904.412 179.851 904.512 180.188 904.65C180.525 904.788 180.832 904.964 181.108 905.179C181.399 905.378 181.675 905.616 181.936 905.892L180.993 907.042L180.832 907.226L180.717 907.111C180.702 906.988 180.663 906.873 180.602 906.766C180.556 906.643 180.449 906.498 180.28 906.329C179.927 906.053 179.529 905.846 179.084 905.708C178.639 905.555 178.21 905.478 177.796 905.478C177.183 905.478 176.654 905.585 176.209 905.8C175.764 906.015 175.542 906.344 175.542 906.789C175.542 907.019 175.619 907.249 175.772 907.479C175.941 907.694 176.24 907.916 176.669 908.146C177.098 908.361 177.712 908.583 178.509 908.813C179.383 909.089 180.081 909.373 180.602 909.664C181.139 909.94 181.522 910.262 181.752 910.63C181.997 910.998 182.12 911.435 182.12 911.941C182.12 912.524 181.959 913.068 181.637 913.574C181.33 914.08 180.855 914.486 180.211 914.793C179.567 915.084 178.754 915.23 177.773 915.23ZM190.377 915.161C189.702 915.161 189.15 915.046 188.721 914.816C188.292 914.586 187.962 914.233 187.732 913.758C187.502 913.267 187.349 912.654 187.272 911.918C187.211 911.182 187.195 910.308 187.226 909.296L187.502 901.798L189.227 901.591L189.457 901.568L189.48 901.729C189.403 901.836 189.334 901.944 189.273 902.051C189.227 902.158 189.189 902.342 189.158 902.603L188.951 905.202L189.02 905.616L188.859 909.411C188.813 910.576 188.844 911.481 188.951 912.125C189.058 912.754 189.25 913.191 189.526 913.436C189.802 913.666 190.17 913.781 190.63 913.781C191.136 913.781 191.581 913.681 191.964 913.482C192.363 913.283 192.777 913.03 193.206 912.723L193.712 914.034C193.191 914.417 192.654 914.701 192.102 914.885C191.55 915.069 190.975 915.161 190.377 915.161ZM185.11 904.489H192.677V905.846H185.11V904.489ZM199.853 915.253C198.657 915.253 197.737 914.985 197.093 914.448C196.449 913.896 196.127 913.198 196.127 912.355C196.127 911.788 196.265 911.282 196.541 910.837C196.817 910.377 197.193 909.994 197.668 909.687C198.159 909.365 198.726 909.12 199.37 908.951C200.014 908.782 200.696 908.698 201.417 908.698C201.678 908.698 201.938 908.706 202.199 908.721C202.475 908.721 202.759 908.736 203.05 908.767C203.357 908.782 203.671 908.813 203.993 908.859L204.039 910.124C203.763 910.078 203.479 910.047 203.188 910.032C202.912 910.001 202.636 909.978 202.36 909.963C202.084 909.948 201.816 909.94 201.555 909.94C201.003 909.94 200.497 909.986 200.037 910.078C199.577 910.17 199.178 910.308 198.841 910.492C198.504 910.676 198.243 910.914 198.059 911.205C197.875 911.496 197.783 911.849 197.783 912.263C197.783 912.585 197.837 912.861 197.944 913.091C198.067 913.306 198.228 913.482 198.427 913.62C198.626 913.743 198.856 913.835 199.117 913.896C199.393 913.957 199.692 913.988 200.014 913.988C200.612 913.988 201.141 913.896 201.601 913.712C202.076 913.513 202.475 913.229 202.797 912.861C203.134 912.493 203.387 912.041 203.556 911.504C203.725 910.967 203.809 910.354 203.809 909.664C203.809 908.621 203.686 907.809 203.441 907.226C203.196 906.643 202.828 906.229 202.337 905.984C201.862 905.739 201.248 905.616 200.497 905.616C199.991 905.616 199.493 905.716 199.002 905.915C198.511 906.099 198.067 906.39 197.668 906.789L196.863 905.731C197.354 905.24 197.921 904.872 198.565 904.627C199.209 904.382 199.891 904.259 200.612 904.259C201.302 904.259 201.931 904.343 202.498 904.512C203.065 904.681 203.548 904.964 203.947 905.363C204.361 905.746 204.675 906.268 204.89 906.927C205.12 907.586 205.235 908.414 205.235 909.411V915H203.441V913.39C203.242 913.773 202.996 914.088 202.705 914.333C202.429 914.578 202.13 914.77 201.808 914.908C201.486 915.031 201.156 915.115 200.819 915.161C200.482 915.222 200.16 915.253 199.853 915.253ZM213.377 915.161C212.702 915.161 212.15 915.046 211.721 914.816C211.292 914.586 210.962 914.233 210.732 913.758C210.502 913.267 210.349 912.654 210.272 911.918C210.211 911.182 210.195 910.308 210.226 909.296L210.502 901.798L212.227 901.591L212.457 901.568L212.48 901.729C212.403 901.836 212.334 901.944 212.273 902.051C212.227 902.158 212.189 902.342 212.158 902.603L211.951 905.202L212.02 905.616L211.859 909.411C211.813 910.576 211.844 911.481 211.951 912.125C212.058 912.754 212.25 913.191 212.526 913.436C212.802 913.666 213.17 913.781 213.63 913.781C214.136 913.781 214.581 913.681 214.964 913.482C215.363 913.283 215.777 913.03 216.206 912.723L216.712 914.034C216.191 914.417 215.654 914.701 215.102 914.885C214.55 915.069 213.975 915.161 213.377 915.161ZM208.11 904.489H215.677V905.846H208.11V904.489ZM223.083 915.253C222.669 915.253 222.278 915.192 221.91 915.069C221.542 914.946 221.205 914.762 220.898 914.517C220.607 914.256 220.354 913.934 220.139 913.551C219.924 913.168 219.756 912.708 219.633 912.171C219.526 911.634 219.472 911.029 219.472 910.354L219.495 904.489H221.105V910.354C221.105 911.013 221.166 911.573 221.289 912.033C221.412 912.493 221.58 912.861 221.795 913.137C222.025 913.413 222.286 913.612 222.577 913.735C222.868 913.858 223.175 913.919 223.497 913.919C223.865 913.919 224.218 913.85 224.555 913.712C224.892 913.559 225.191 913.336 225.452 913.045C225.728 912.754 225.943 912.378 226.096 911.918C226.249 911.458 226.326 910.914 226.326 910.285V904.489H227.936V913.367C227.936 913.643 227.944 913.919 227.959 914.195C227.99 914.456 228.059 914.724 228.166 915H226.579C226.502 914.816 226.449 914.64 226.418 914.471C226.387 914.287 226.364 914.103 226.349 913.919C226.349 913.735 226.349 913.559 226.349 913.39C226.18 913.681 225.981 913.942 225.751 914.172C225.521 914.402 225.26 914.601 224.969 914.77C224.693 914.923 224.394 915.038 224.072 915.115C223.765 915.207 223.436 915.253 223.083 915.253ZM235.273 915.23C234.69 915.23 234.131 915.169 233.594 915.046C233.073 914.923 232.574 914.739 232.099 914.494C231.639 914.249 231.21 913.942 230.811 913.574L231.731 912.01L231.869 911.803L232.007 911.895C232.038 912.018 232.068 912.148 232.099 912.286C232.145 912.409 232.252 912.562 232.421 912.746C232.743 913.068 233.126 913.336 233.571 913.551C234.031 913.75 234.614 913.85 235.319 913.85C235.886 913.85 236.362 913.781 236.745 913.643C237.144 913.505 237.45 913.313 237.665 913.068C237.88 912.807 237.987 912.508 237.987 912.171C237.987 911.941 237.941 911.742 237.849 911.573C237.757 911.389 237.604 911.22 237.389 911.067C237.19 910.914 236.921 910.76 236.584 910.607C236.247 910.454 235.833 910.3 235.342 910.147C234.545 909.917 233.847 909.649 233.249 909.342C232.651 909.035 232.191 908.683 231.869 908.284C231.547 907.87 231.386 907.402 231.386 906.881C231.386 906.344 231.532 905.884 231.823 905.501C232.114 905.102 232.544 904.796 233.111 904.581C233.694 904.351 234.407 904.236 235.25 904.236C235.741 904.236 236.185 904.274 236.584 904.351C236.983 904.412 237.351 904.512 237.688 904.65C238.025 904.788 238.332 904.964 238.608 905.179C238.899 905.378 239.175 905.616 239.436 905.892L238.493 907.042L238.332 907.226L238.217 907.111C238.202 906.988 238.163 906.873 238.102 906.766C238.056 906.643 237.949 906.498 237.78 906.329C237.427 906.053 237.029 905.846 236.584 905.708C236.139 905.555 235.71 905.478 235.296 905.478C234.683 905.478 234.154 905.585 233.709 905.8C233.264 906.015 233.042 906.344 233.042 906.789C233.042 907.019 233.119 907.249 233.272 907.479C233.441 907.694 233.74 907.916 234.169 908.146C234.598 908.361 235.212 908.583 236.009 908.813C236.883 909.089 237.581 909.373 238.102 909.664C238.639 909.94 239.022 910.262 239.252 910.63C239.497 910.998 239.62 911.435 239.62 911.941C239.62 912.524 239.459 913.068 239.137 913.574C238.83 914.08 238.355 914.486 237.711 914.793C237.067 915.084 236.254 915.23 235.273 915.23ZM257.974 907.916C257.621 907.916 257.307 907.786 257.031 907.525C256.755 907.264 256.617 906.958 256.617 906.605C256.617 906.237 256.755 905.923 257.031 905.662C257.307 905.401 257.621 905.271 257.974 905.271C258.327 905.271 258.641 905.401 258.917 905.662C259.208 905.923 259.354 906.237 259.354 906.605C259.354 906.958 259.216 907.264 258.94 907.525C258.664 907.786 258.342 907.916 257.974 907.916ZM257.974 915.253C257.591 915.253 257.269 915.13 257.008 914.885C256.747 914.624 256.617 914.31 256.617 913.942C256.617 913.574 256.755 913.26 257.031 912.999C257.307 912.738 257.621 912.608 257.974 912.608C258.327 912.608 258.641 912.738 258.917 912.999C259.208 913.26 259.354 913.574 259.354 913.942C259.354 914.295 259.216 914.601 258.94 914.862C258.679 915.123 258.357 915.253 257.974 915.253ZM277.777 904.351H280.146L280.1 907.387L279.824 907.134C279.901 906.674 280.046 906.26 280.261 905.892C280.476 905.509 280.736 905.187 281.043 904.926C281.365 904.665 281.718 904.466 282.101 904.328C282.484 904.175 282.883 904.098 283.297 904.098C283.88 904.098 284.409 904.198 284.884 904.397C285.359 904.596 285.789 904.895 286.172 905.294L285.206 907.18L285.114 907.387L284.93 907.295C284.884 907.172 284.838 907.05 284.792 906.927C284.746 906.804 284.631 906.659 284.447 906.49C284.217 906.337 283.987 906.222 283.757 906.145C283.542 906.068 283.289 906.03 282.998 906.03C282.63 906.03 282.27 906.099 281.917 906.237C281.58 906.36 281.273 906.559 280.997 906.835C280.721 907.111 280.499 907.464 280.33 907.893C280.177 908.307 280.1 908.813 280.1 909.411V915.023H277.777V904.351ZM293.233 915.253C292.466 915.253 291.761 915.13 291.117 914.885C290.473 914.64 289.913 914.287 289.438 913.827C288.978 913.352 288.618 912.769 288.357 912.079C288.096 911.389 287.966 910.607 287.966 909.733C287.966 908.844 288.096 908.054 288.357 907.364C288.618 906.659 288.97 906.068 289.415 905.593C289.875 905.118 290.404 904.75 291.002 904.489C291.615 904.228 292.267 904.098 292.957 904.098C293.555 904.098 294.122 904.205 294.659 904.42C295.211 904.635 295.686 904.957 296.085 905.386C296.499 905.8 296.821 906.329 297.051 906.973C297.296 907.617 297.419 908.368 297.419 909.227C297.419 909.38 297.419 909.557 297.419 909.756C297.419 909.94 297.411 910.101 297.396 910.239H290.174C290.205 910.791 290.312 911.274 290.496 911.688C290.68 912.087 290.91 912.416 291.186 912.677C291.477 912.938 291.807 913.129 292.175 913.252C292.543 913.375 292.926 913.436 293.325 913.436C293.678 913.436 294 913.405 294.291 913.344C294.598 913.267 294.889 913.152 295.165 912.999C295.441 912.846 295.694 912.639 295.924 912.378L297.12 913.551C296.798 913.934 296.438 914.256 296.039 914.517C295.64 914.762 295.203 914.946 294.728 915.069C294.268 915.192 293.77 915.253 293.233 915.253ZM290.22 908.514H295.188C295.188 908.085 295.134 907.709 295.027 907.387C294.92 907.065 294.759 906.789 294.544 906.559C294.345 906.329 294.099 906.16 293.808 906.053C293.517 905.93 293.195 905.869 292.842 905.869C292.505 905.869 292.19 905.923 291.899 906.03C291.623 906.137 291.37 906.298 291.14 906.513C290.91 906.728 290.711 907.004 290.542 907.341C290.389 907.663 290.281 908.054 290.22 908.514ZM303.146 915.253C301.965 915.253 301.045 914.985 300.386 914.448C299.742 913.896 299.42 913.183 299.42 912.309C299.42 911.726 299.55 911.205 299.811 910.745C300.087 910.27 300.47 909.863 300.961 909.526C301.467 909.189 302.073 908.928 302.778 908.744C303.483 908.545 304.281 908.445 305.17 908.445C305.354 908.445 305.546 908.453 305.745 908.468C305.96 908.468 306.182 908.476 306.412 908.491C306.657 908.506 306.903 908.522 307.148 908.537L307.217 910.17C307.002 910.139 306.772 910.116 306.527 910.101C306.297 910.086 306.067 910.078 305.837 910.078C305.607 910.078 305.392 910.078 305.193 910.078C304.595 910.078 304.074 910.124 303.629 910.216C303.2 910.293 302.839 910.415 302.548 910.584C302.272 910.753 302.065 910.96 301.927 911.205C301.789 911.45 301.72 911.734 301.72 912.056C301.72 912.317 301.766 912.547 301.858 912.746C301.95 912.93 302.073 913.076 302.226 913.183C302.395 913.29 302.586 913.375 302.801 913.436C303.031 913.482 303.276 913.505 303.537 913.505C304.043 913.505 304.488 913.421 304.871 913.252C305.254 913.083 305.576 912.838 305.837 912.516C306.113 912.179 306.32 911.765 306.458 911.274C306.596 910.768 306.665 910.178 306.665 909.503C306.665 908.568 306.558 907.839 306.343 907.318C306.144 906.797 305.845 906.436 305.446 906.237C305.047 906.038 304.549 905.938 303.951 905.938C303.46 905.938 302.985 906.022 302.525 906.191C302.08 906.344 301.643 906.636 301.214 907.065L299.995 905.685C300.578 905.133 301.214 904.734 301.904 904.489C302.609 904.244 303.33 904.121 304.066 904.121C304.741 904.121 305.362 904.205 305.929 904.374C306.512 904.527 307.018 904.788 307.447 905.156C307.892 905.524 308.229 906.022 308.459 906.651C308.704 907.28 308.827 908.077 308.827 909.043V915H306.435V913.689C306.236 913.996 306.013 914.256 305.768 914.471C305.523 914.67 305.254 914.831 304.963 914.954C304.687 915.061 304.396 915.138 304.089 915.184C303.782 915.23 303.468 915.253 303.146 915.253ZM315.244 915.253C314.677 915.253 314.125 915.138 313.588 914.908C313.067 914.663 312.599 914.31 312.185 913.85C311.771 913.39 311.441 912.807 311.196 912.102C310.966 911.381 310.851 910.553 310.851 909.618C310.851 908.667 310.966 907.847 311.196 907.157C311.441 906.467 311.771 905.9 312.185 905.455C312.599 904.995 313.074 904.658 313.611 904.443C314.148 904.213 314.707 904.098 315.29 904.098C315.704 904.098 316.08 904.152 316.417 904.259C316.77 904.366 317.084 904.527 317.36 904.742C317.636 904.957 317.858 905.225 318.027 905.547V899.613H320.258H320.465V899.82C320.388 899.912 320.335 900.012 320.304 900.119C320.273 900.226 320.266 900.41 320.281 900.671V913.505C320.281 913.75 320.289 914.003 320.304 914.264C320.335 914.509 320.404 914.755 320.511 915H318.257C318.18 914.831 318.127 914.678 318.096 914.54C318.065 914.402 318.05 914.264 318.05 914.126C318.05 913.988 318.05 913.842 318.05 913.689C317.835 914.011 317.59 914.295 317.314 914.54C317.038 914.77 316.724 914.946 316.371 915.069C316.018 915.192 315.643 915.253 315.244 915.253ZM315.635 913.367C316.049 913.367 316.402 913.283 316.693 913.114C316.984 912.945 317.222 912.7 317.406 912.378C317.59 912.056 317.728 911.665 317.82 911.205C317.912 910.745 317.958 910.224 317.958 909.641C317.958 908.859 317.874 908.192 317.705 907.64C317.536 907.073 317.268 906.643 316.9 906.352C316.547 906.045 316.095 905.892 315.543 905.892C315.144 905.892 314.792 905.976 314.485 906.145C314.178 906.314 313.918 906.559 313.703 906.881C313.504 907.188 313.35 907.563 313.243 908.008C313.136 908.453 313.082 908.951 313.082 909.503C313.082 910.285 313.189 910.967 313.404 911.55C313.634 912.133 313.941 912.585 314.324 912.907C314.707 913.214 315.144 913.367 315.635 913.367ZM324.398 919.025C323.892 919.025 323.44 918.941 323.041 918.772C322.642 918.619 322.259 918.381 321.891 918.059L322.742 916.495L322.857 916.311L323.018 916.403C323.064 916.51 323.118 916.61 323.179 916.702C323.256 916.809 323.401 916.94 323.616 917.093C323.739 917.139 323.869 917.17 324.007 917.185C324.145 917.216 324.283 917.231 324.421 917.231C324.774 917.231 325.073 917.139 325.318 916.955C325.563 916.786 325.778 916.518 325.962 916.15C326.161 915.782 326.361 915.307 326.56 914.724L328.768 908.284C328.998 907.609 329.197 906.958 329.366 906.329C329.55 905.685 329.665 905.026 329.711 904.351H331.873C331.812 905.056 331.651 905.785 331.39 906.536C331.145 907.287 330.892 908.016 330.631 908.721L327.986 916.012C327.587 917.131 327.089 917.913 326.491 918.358C325.893 918.803 325.195 919.025 324.398 919.025ZM322.328 904.351H324.651L327.871 912.723L326.721 915.253L322.328 904.351Z" fill="black"/>
<path d="M111.768 74.75L91 110.029L70.2324 74.75L111.768 74.75Z" stroke="black" stroke-width="2"/>
<line x1="70.5446" y1="75.1613" x2="91.1298" y2="88.5275" stroke="black" stroke-width="2"/>
<line x1="91" y1="89" x2="91" y2="110" stroke="black" stroke-width="2"/>
<line x1="111.555" y1="74.8317" x2="90.5551" y2="88.8491" stroke="black" stroke-width="2"/>
<path d="M118.43 94H116.945V93.145H118.43V92.575C118.43 91.965 118.535 91.465 118.745 91.075C118.965 90.685 119.265 90.4 119.645 90.22C120.025 90.03 120.46 89.935 120.95 89.935C121.38 89.935 121.78 90.015 122.15 90.175C122.53 90.325 122.845 90.56 123.095 90.88L122.525 91.675L122.435 91.795L122.345 91.735C122.335 91.655 122.315 91.575 122.285 91.495C122.255 91.415 122.185 91.315 122.075 91.195C121.915 91.055 121.755 90.955 121.595 90.895C121.435 90.835 121.23 90.805 120.98 90.805C120.69 90.805 120.43 90.865 120.2 90.985C119.97 91.095 119.79 91.28 119.66 91.54C119.53 91.79 119.465 92.135 119.465 92.575V93.145H121.715V94H119.465V100H118.43V94ZM125.285 93.145H126.41L126.365 95.14L126.23 94.915C126.29 94.605 126.395 94.33 126.545 94.09C126.695 93.85 126.875 93.65 127.085 93.49C127.295 93.32 127.525 93.195 127.775 93.115C128.025 93.025 128.285 92.98 128.555 92.98C128.915 92.98 129.245 93.045 129.545 93.175C129.855 93.295 130.13 93.48 130.37 93.73L129.89 94.57L129.83 94.705L129.725 94.645C129.705 94.565 129.675 94.49 129.635 94.42C129.595 94.35 129.51 94.265 129.38 94.165C129.22 94.065 129.07 94 128.93 93.97C128.8 93.93 128.65 93.91 128.48 93.91C128.23 93.91 127.98 93.96 127.73 94.06C127.48 94.15 127.25 94.295 127.04 94.495C126.84 94.695 126.68 94.95 126.56 95.26C126.44 95.57 126.38 95.94 126.38 96.37V100.015H125.285V93.145ZM134.165 100.165C133.385 100.165 132.785 99.99 132.365 99.64C131.945 99.28 131.735 98.825 131.735 98.275C131.735 97.905 131.825 97.575 132.005 97.285C132.185 96.985 132.43 96.735 132.74 96.535C133.06 96.325 133.43 96.165 133.85 96.055C134.27 95.945 134.715 95.89 135.185 95.89C135.355 95.89 135.525 95.895 135.695 95.905C135.875 95.905 136.06 95.915 136.25 95.935C136.45 95.945 136.655 95.965 136.865 95.995L136.895 96.82C136.715 96.79 136.53 96.77 136.34 96.76C136.16 96.74 135.98 96.725 135.8 96.715C135.62 96.705 135.445 96.7 135.275 96.7C134.915 96.7 134.585 96.73 134.285 96.79C133.985 96.85 133.725 96.94 133.505 97.06C133.285 97.18 133.115 97.335 132.995 97.525C132.875 97.715 132.815 97.945 132.815 98.215C132.815 98.425 132.85 98.605 132.92 98.755C133 98.895 133.105 99.01 133.235 99.1C133.365 99.18 133.515 99.24 133.685 99.28C133.865 99.32 134.06 99.34 134.27 99.34C134.66 99.34 135.005 99.28 135.305 99.16C135.615 99.03 135.875 98.845 136.085 98.605C136.305 98.365 136.47 98.07 136.58 97.72C136.69 97.37 136.745 96.97 136.745 96.52C136.745 95.84 136.665 95.31 136.505 94.93C136.345 94.55 136.105 94.28 135.785 94.12C135.475 93.96 135.075 93.88 134.585 93.88C134.255 93.88 133.93 93.945 133.61 94.075C133.29 94.195 133 94.385 132.74 94.645L132.215 93.955C132.535 93.635 132.905 93.395 133.325 93.235C133.745 93.075 134.19 92.995 134.66 92.995C135.11 92.995 135.52 93.05 135.89 93.16C136.26 93.27 136.575 93.455 136.835 93.715C137.105 93.965 137.31 94.305 137.45 94.735C137.6 95.165 137.675 95.705 137.675 96.355V100H136.505V98.95C136.375 99.2 136.215 99.405 136.025 99.565C135.845 99.725 135.65 99.85 135.44 99.94C135.23 100.02 135.015 100.075 134.795 100.105C134.575 100.145 134.365 100.165 134.165 100.165ZM142.775 100.165C142.275 100.165 141.815 100.075 141.395 99.895C140.975 99.715 140.61 99.465 140.3 99.145C140 98.825 139.765 98.45 139.595 98.02C139.425 97.58 139.34 97.1 139.34 96.58C139.34 96.07 139.425 95.6 139.595 95.17C139.765 94.73 140 94.35 140.3 94.03C140.61 93.71 140.975 93.46 141.395 93.28C141.815 93.1 142.27 93.01 142.76 93.01C143.32 93.01 143.82 93.125 144.26 93.355C144.71 93.575 145.075 93.885 145.355 94.285L144.68 94.945L144.575 95.05L144.5 94.975C144.5 94.895 144.48 94.82 144.44 94.75C144.41 94.68 144.335 94.585 144.215 94.465C143.995 94.265 143.76 94.125 143.51 94.045C143.26 93.965 142.97 93.925 142.64 93.925C142.35 93.925 142.075 93.985 141.815 94.105C141.555 94.225 141.32 94.4 141.11 94.63C140.91 94.85 140.75 95.12 140.63 95.44C140.51 95.76 140.45 96.115 140.45 96.505C140.45 96.895 140.51 97.255 140.63 97.585C140.75 97.905 140.915 98.185 141.125 98.425C141.335 98.665 141.585 98.855 141.875 98.995C142.175 99.125 142.495 99.19 142.835 99.19C143.065 99.19 143.285 99.16 143.495 99.1C143.705 99.03 143.905 98.935 144.095 98.815C144.285 98.685 144.46 98.53 144.62 98.35L145.25 99.085C144.91 99.445 144.53 99.715 144.11 99.895C143.7 100.075 143.255 100.165 142.775 100.165ZM150.485 100.105C150.045 100.105 149.685 100.03 149.405 99.88C149.125 99.73 148.91 99.5 148.76 99.19C148.61 98.87 148.51 98.47 148.46 97.99C148.42 97.51 148.41 96.94 148.43 96.28L148.61 91.39L149.735 91.255L149.885 91.24L149.9 91.345C149.85 91.415 149.805 91.485 149.765 91.555C149.735 91.625 149.71 91.745 149.69 91.915L149.555 93.61L149.6 93.88L149.495 96.355C149.465 97.115 149.485 97.705 149.555 98.125C149.625 98.535 149.75 98.82 149.93 98.98C150.11 99.13 150.35 99.205 150.65 99.205C150.98 99.205 151.27 99.14 151.52 99.01C151.78 98.88 152.05 98.715 152.33 98.515L152.66 99.37C152.32 99.62 151.97 99.805 151.61 99.925C151.25 100.045 150.875 100.105 150.485 100.105ZM147.05 93.145H151.985V94.03H147.05V93.145ZM156.665 100.165C155.885 100.165 155.285 99.99 154.865 99.64C154.445 99.28 154.235 98.825 154.235 98.275C154.235 97.905 154.325 97.575 154.505 97.285C154.685 96.985 154.93 96.735 155.24 96.535C155.56 96.325 155.93 96.165 156.35 96.055C156.77 95.945 157.215 95.89 157.685 95.89C157.855 95.89 158.025 95.895 158.195 95.905C158.375 95.905 158.56 95.915 158.75 95.935C158.95 95.945 159.155 95.965 159.365 95.995L159.395 96.82C159.215 96.79 159.03 96.77 158.84 96.76C158.66 96.74 158.48 96.725 158.3 96.715C158.12 96.705 157.945 96.7 157.775 96.7C157.415 96.7 157.085 96.73 156.785 96.79C156.485 96.85 156.225 96.94 156.005 97.06C155.785 97.18 155.615 97.335 155.495 97.525C155.375 97.715 155.315 97.945 155.315 98.215C155.315 98.425 155.35 98.605 155.42 98.755C155.5 98.895 155.605 99.01 155.735 99.1C155.865 99.18 156.015 99.24 156.185 99.28C156.365 99.32 156.56 99.34 156.77 99.34C157.16 99.34 157.505 99.28 157.805 99.16C158.115 99.03 158.375 98.845 158.585 98.605C158.805 98.365 158.97 98.07 159.08 97.72C159.19 97.37 159.245 96.97 159.245 96.52C159.245 95.84 159.165 95.31 159.005 94.93C158.845 94.55 158.605 94.28 158.285 94.12C157.975 93.96 157.575 93.88 157.085 93.88C156.755 93.88 156.43 93.945 156.11 94.075C155.79 94.195 155.5 94.385 155.24 94.645L154.715 93.955C155.035 93.635 155.405 93.395 155.825 93.235C156.245 93.075 156.69 92.995 157.16 92.995C157.61 92.995 158.02 93.05 158.39 93.16C158.76 93.27 159.075 93.455 159.335 93.715C159.605 93.965 159.81 94.305 159.95 94.735C160.1 95.165 160.175 95.705 160.175 96.355V100H159.005V98.95C158.875 99.2 158.715 99.405 158.525 99.565C158.345 99.725 158.15 99.85 157.94 99.94C157.73 100.02 157.515 100.075 157.295 100.105C157.075 100.145 156.865 100.165 156.665 100.165ZM162.185 100V99.13H164.21V90.895H162.275V90.025H165.305V99.13H167.315V100H162.185ZM179.765 100.15C179.385 100.15 179.02 100.11 178.67 100.03C178.33 99.95 178.005 99.83 177.695 99.67C177.395 99.51 177.115 99.31 176.855 99.07L177.455 98.05L177.545 97.915L177.635 97.975C177.655 98.055 177.675 98.14 177.695 98.23C177.725 98.31 177.795 98.41 177.905 98.53C178.115 98.74 178.365 98.915 178.655 99.055C178.955 99.185 179.335 99.25 179.795 99.25C180.165 99.25 180.475 99.205 180.725 99.115C180.985 99.025 181.185 98.9 181.325 98.74C181.465 98.57 181.535 98.375 181.535 98.155C181.535 98.005 181.505 97.875 181.445 97.765C181.385 97.645 181.285 97.535 181.145 97.435C181.015 97.335 180.84 97.235 180.62 97.135C180.4 97.035 180.13 96.935 179.81 96.835C179.29 96.685 178.835 96.51 178.445 96.31C178.055 96.11 177.755 95.88 177.545 95.62C177.335 95.35 177.23 95.045 177.23 94.705C177.23 94.355 177.325 94.055 177.515 93.805C177.705 93.545 177.985 93.345 178.355 93.205C178.735 93.055 179.2 92.98 179.75 92.98C180.07 92.98 180.36 93.005 180.62 93.055C180.88 93.095 181.12 93.16 181.34 93.25C181.56 93.34 181.76 93.455 181.94 93.595C182.13 93.725 182.31 93.88 182.48 94.06L181.865 94.81L181.76 94.93L181.685 94.855C181.675 94.775 181.65 94.7 181.61 94.63C181.58 94.55 181.51 94.455 181.4 94.345C181.17 94.165 180.91 94.03 180.62 93.94C180.33 93.84 180.05 93.79 179.78 93.79C179.38 93.79 179.035 93.86 178.745 94C178.455 94.14 178.31 94.355 178.31 94.645C178.31 94.795 178.36 94.945 178.46 95.095C178.57 95.235 178.765 95.38 179.045 95.53C179.325 95.67 179.725 95.815 180.245 95.965C180.815 96.145 181.27 96.33 181.61 96.52C181.96 96.7 182.21 96.91 182.36 97.15C182.52 97.39 182.6 97.675 182.6 98.005C182.6 98.385 182.495 98.74 182.285 99.07C182.085 99.4 181.775 99.665 181.355 99.865C180.935 100.055 180.405 100.15 179.765 100.15ZM185.405 102.61C185.085 102.61 184.79 102.56 184.52 102.46C184.26 102.36 184.03 102.215 183.83 102.025L184.295 101.29L184.385 101.155L184.475 101.215C184.495 101.295 184.53 101.36 184.58 101.41C184.63 101.47 184.725 101.545 184.865 101.635C184.955 101.665 185.05 101.685 185.15 101.695C185.25 101.715 185.355 101.725 185.465 101.725C185.735 101.725 185.96 101.66 186.14 101.53C186.33 101.4 186.495 101.2 186.635 100.93C186.775 100.66 186.91 100.32 187.04 99.91L188.345 95.875C188.495 95.415 188.64 94.96 188.78 94.51C188.92 94.06 189.015 93.605 189.065 93.145H190.145C190.075 93.605 189.965 94.07 189.815 94.54C189.665 95.01 189.505 95.48 189.335 95.95L187.625 100.78C187.385 101.45 187.075 101.92 186.695 102.19C186.325 102.47 185.895 102.61 185.405 102.61ZM184.19 93.145H185.315L187.535 98.86L187.055 100.195L184.19 93.145ZM194.765 100.15C194.385 100.15 194.02 100.11 193.67 100.03C193.33 99.95 193.005 99.83 192.695 99.67C192.395 99.51 192.115 99.31 191.855 99.07L192.455 98.05L192.545 97.915L192.635 97.975C192.655 98.055 192.675 98.14 192.695 98.23C192.725 98.31 192.795 98.41 192.905 98.53C193.115 98.74 193.365 98.915 193.655 99.055C193.955 99.185 194.335 99.25 194.795 99.25C195.165 99.25 195.475 99.205 195.725 99.115C195.985 99.025 196.185 98.9 196.325 98.74C196.465 98.57 196.535 98.375 196.535 98.155C196.535 98.005 196.505 97.875 196.445 97.765C196.385 97.645 196.285 97.535 196.145 97.435C196.015 97.335 195.84 97.235 195.62 97.135C195.4 97.035 195.13 96.935 194.81 96.835C194.29 96.685 193.835 96.51 193.445 96.31C193.055 96.11 192.755 95.88 192.545 95.62C192.335 95.35 192.23 95.045 192.23 94.705C192.23 94.355 192.325 94.055 192.515 93.805C192.705 93.545 192.985 93.345 193.355 93.205C193.735 93.055 194.2 92.98 194.75 92.98C195.07 92.98 195.36 93.005 195.62 93.055C195.88 93.095 196.12 93.16 196.34 93.25C196.56 93.34 196.76 93.455 196.94 93.595C197.13 93.725 197.31 93.88 197.48 94.06L196.865 94.81L196.76 94.93L196.685 94.855C196.675 94.775 196.65 94.7 196.61 94.63C196.58 94.55 196.51 94.455 196.4 94.345C196.17 94.165 195.91 94.03 195.62 93.94C195.33 93.84 195.05 93.79 194.78 93.79C194.38 93.79 194.035 93.86 193.745 94C193.455 94.14 193.31 94.355 193.31 94.645C193.31 94.795 193.36 94.945 193.46 95.095C193.57 95.235 193.765 95.38 194.045 95.53C194.325 95.67 194.725 95.815 195.245 95.965C195.815 96.145 196.27 96.33 196.61 96.52C196.96 96.7 197.21 96.91 197.36 97.15C197.52 97.39 197.6 97.675 197.6 98.005C197.6 98.385 197.495 98.74 197.285 99.07C197.085 99.4 196.775 99.665 196.355 99.865C195.935 100.055 195.405 100.15 194.765 100.15ZM202.985 100.105C202.545 100.105 202.185 100.03 201.905 99.88C201.625 99.73 201.41 99.5 201.26 99.19C201.11 98.87 201.01 98.47 200.96 97.99C200.92 97.51 200.91 96.94 200.93 96.28L201.11 91.39L202.235 91.255L202.385 91.24L202.4 91.345C202.35 91.415 202.305 91.485 202.265 91.555C202.235 91.625 202.21 91.745 202.19 91.915L202.055 93.61L202.1 93.88L201.995 96.355C201.965 97.115 201.985 97.705 202.055 98.125C202.125 98.535 202.25 98.82 202.43 98.98C202.61 99.13 202.85 99.205 203.15 99.205C203.48 99.205 203.77 99.14 204.02 99.01C204.28 98.88 204.55 98.715 204.83 98.515L205.16 99.37C204.82 99.62 204.47 99.805 204.11 99.925C203.75 100.045 203.375 100.105 202.985 100.105ZM199.55 93.145H204.485V94.03H199.55V93.145ZM210.08 100.15C209.58 100.15 209.125 100.075 208.715 99.925C208.305 99.765 207.95 99.535 207.65 99.235C207.36 98.935 207.135 98.565 206.975 98.125C206.815 97.675 206.735 97.165 206.735 96.595C206.735 96.015 206.815 95.5 206.975 95.05C207.145 94.6 207.37 94.225 207.65 93.925C207.94 93.615 208.275 93.38 208.655 93.22C209.045 93.06 209.455 92.98 209.885 92.98C210.275 92.98 210.64 93.045 210.98 93.175C211.32 93.305 211.615 93.505 211.865 93.775C212.115 94.035 212.31 94.37 212.45 94.78C212.6 95.19 212.675 95.675 212.675 96.235C212.675 96.315 212.67 96.4 212.66 96.49C212.66 96.57 212.655 96.65 212.645 96.73H207.77C207.79 97.17 207.865 97.555 207.995 97.885C208.125 98.205 208.295 98.47 208.505 98.68C208.715 98.88 208.955 99.03 209.225 99.13C209.505 99.23 209.8 99.28 210.11 99.28C210.35 99.28 210.575 99.255 210.785 99.205C210.995 99.145 211.19 99.06 211.37 98.95C211.56 98.83 211.73 98.685 211.88 98.515L212.48 99.1C212.29 99.33 212.07 99.525 211.82 99.685C211.58 99.845 211.315 99.96 211.025 100.03C210.735 100.11 210.42 100.15 210.08 100.15ZM207.815 95.89H211.58C211.58 95.57 211.535 95.285 211.445 95.035C211.365 94.775 211.245 94.555 211.085 94.375C210.935 94.185 210.75 94.045 210.53 93.955C210.32 93.855 210.08 93.805 209.81 93.805C209.57 93.805 209.34 93.845 209.12 93.925C208.91 94.005 208.715 94.135 208.535 94.315C208.355 94.485 208.2 94.7 208.07 94.96C207.95 95.22 207.865 95.53 207.815 95.89ZM214.07 100V93.145H215.06V93.82C215.17 93.65 215.295 93.505 215.435 93.385C215.585 93.255 215.745 93.155 215.915 93.085C216.095 93.015 216.275 92.98 216.455 92.98C216.655 92.98 216.84 93.025 217.01 93.115C217.18 93.195 217.32 93.31 217.43 93.46C217.55 93.61 217.63 93.785 217.67 93.985C217.76 93.785 217.88 93.61 218.03 93.46C218.19 93.31 218.37 93.195 218.57 93.115C218.78 93.025 218.995 92.98 219.215 92.98C219.445 92.98 219.645 93.025 219.815 93.115C219.985 93.205 220.125 93.33 220.235 93.49C220.345 93.64 220.425 93.825 220.475 94.045C220.525 94.255 220.545 94.485 220.535 94.735V100H219.545V95.14C219.545 94.72 219.515 94.415 219.455 94.225C219.405 94.035 219.33 93.915 219.23 93.865C219.13 93.805 219.02 93.775 218.9 93.775C218.71 93.775 218.53 93.865 218.36 94.045C218.2 94.215 218.065 94.43 217.955 94.69C217.855 94.95 217.805 95.21 217.805 95.47V100H216.8V95.23C216.8 94.66 216.745 94.28 216.635 94.09C216.535 93.9 216.34 93.805 216.05 93.805C215.94 93.805 215.825 93.845 215.705 93.925C215.595 93.995 215.49 94.1 215.39 94.24C215.29 94.37 215.21 94.535 215.15 94.735C215.09 94.935 215.06 95.165 215.06 95.425V100H214.07ZM224.765 100.15C224.385 100.15 224.02 100.11 223.67 100.03C223.33 99.95 223.005 99.83 222.695 99.67C222.395 99.51 222.115 99.31 221.855 99.07L222.455 98.05L222.545 97.915L222.635 97.975C222.655 98.055 222.675 98.14 222.695 98.23C222.725 98.31 222.795 98.41 222.905 98.53C223.115 98.74 223.365 98.915 223.655 99.055C223.955 99.185 224.335 99.25 224.795 99.25C225.165 99.25 225.475 99.205 225.725 99.115C225.985 99.025 226.185 98.9 226.325 98.74C226.465 98.57 226.535 98.375 226.535 98.155C226.535 98.005 226.505 97.875 226.445 97.765C226.385 97.645 226.285 97.535 226.145 97.435C226.015 97.335 225.84 97.235 225.62 97.135C225.4 97.035 225.13 96.935 224.81 96.835C224.29 96.685 223.835 96.51 223.445 96.31C223.055 96.11 222.755 95.88 222.545 95.62C222.335 95.35 222.23 95.045 222.23 94.705C222.23 94.355 222.325 94.055 222.515 93.805C222.705 93.545 222.985 93.345 223.355 93.205C223.735 93.055 224.2 92.98 224.75 92.98C225.07 92.98 225.36 93.005 225.62 93.055C225.88 93.095 226.12 93.16 226.34 93.25C226.56 93.34 226.76 93.455 226.94 93.595C227.13 93.725 227.31 93.88 227.48 94.06L226.865 94.81L226.76 94.93L226.685 94.855C226.675 94.775 226.65 94.7 226.61 94.63C226.58 94.55 226.51 94.455 226.4 94.345C226.17 94.165 225.91 94.03 225.62 93.94C225.33 93.84 225.05 93.79 224.78 93.79C224.38 93.79 224.035 93.86 223.745 94C223.455 94.14 223.31 94.355 223.31 94.645C223.31 94.795 223.36 94.945 223.46 95.095C223.57 95.235 223.765 95.38 224.045 95.53C224.325 95.67 224.725 95.815 225.245 95.965C225.815 96.145 226.27 96.33 226.61 96.52C226.96 96.7 227.21 96.91 227.36 97.15C227.52 97.39 227.6 97.675 227.6 98.005C227.6 98.385 227.495 98.74 227.285 99.07C227.085 99.4 226.775 99.665 226.355 99.865C225.935 100.055 225.405 100.15 224.765 100.15Z" fill="black"/>
<line y1="-0.5" x2="405" y2="-0.5" transform="matrix(4.37114e-08 1 1 -4.37114e-08 1852 305)" stroke="black"/>
<line y1="-0.5" x2="24" y2="-0.5" transform="matrix(-1 0 0 1 1852 305)" stroke="black"/>
<line y1="-0.5" x2="9" y2="-0.5" transform="matrix(-1 0 0 1 1852 357)" stroke="black"/>
<line y1="-0.5" x2="9" y2="-0.5" transform="matrix(-1 0 0 1 1852 417)" stroke="black"/>
<line y1="-0.5" x2="9" y2="-0.5" transform="matrix(-1 0 0 1 1852 472)" stroke="black"/>
<line y1="-0.5" x2="9" y2="-0.5" transform="matrix(-1 0 0 1 1852 535)" stroke="black"/>
<line y1="-0.5" x2="9" y2="-0.5" transform="matrix(-1 0 0 1 1852 595)" stroke="black"/>
<line y1="-0.5" x2="9" y2="-0.5" transform="matrix(-1 0 0 1 1852 655)" stroke="black"/>
<line y1="-0.5" x2="9" y2="-0.5" transform="matrix(-1 0 0 1 1852 710)" stroke="black"/>
</svg>
