<svg width="1905" height="981" viewBox="0 0 1905 981" fill="none" xmlns="http://www.w3.org/2000/svg">
<line x1="115.5" y1="282" x2="115.5" y2="527" stroke="black" stroke-width="3"/>
<line x1="113.5" y1="282" x2="113.5" y2="374" stroke="black" stroke-width="5"/>
<path d="M1776 398L1835.29 458.505" stroke="black" stroke-width="10" stroke-linecap="square"/>
<path d="M1776 398L1835.29 458.505" stroke="black" stroke-width="10" stroke-linecap="square"/>
<path d="M1894.83 398L1835.54 458.505" stroke="black" stroke-width="10" stroke-linecap="square"/>
<path d="M1895.29 459L1836 519.505" stroke="black" stroke-width="10" stroke-linecap="square"/>
<path d="M1901.29 520L1842 580.505" stroke="black" stroke-width="10" stroke-linecap="square"/>
<path d="M1776 337L1835.29 397.505" stroke="black" stroke-width="10" stroke-linecap="square"/>
<path d="M1894.83 337L1835.54 397.505" stroke="black" stroke-width="10" stroke-linecap="square"/>
<path d="M1777 276L1836.29 336.505" stroke="black" stroke-width="10" stroke-linecap="square"/>
<path d="M1895.83 276L1836.54 336.505" stroke="black" stroke-width="10" stroke-linecap="square"/>
<path d="M1776 215L1835.29 275.505" stroke="black" stroke-width="10" stroke-linecap="square"/>
<path d="M1894.83 215L1835.54 275.505" stroke="black" stroke-width="10" stroke-linecap="square"/>
<path d="M1776 154L1835.29 214.505" stroke="black" stroke-width="10" stroke-linecap="square"/>
<path d="M1894.83 154L1835.54 214.505" stroke="black" stroke-width="10" stroke-linecap="square"/>
<path d="M1776 104L1835.29 164.505" stroke="black" stroke-width="10" stroke-linecap="square"/>
<path d="M1894.83 104L1835.54 164.505" stroke="black" stroke-width="10" stroke-linecap="square"/>
<line x1="484" y1="648.5" x2="499" y2="648.5" stroke="black"/>
<line x1="484.5" y1="649" x2="484.5" y2="664" stroke="black"/>
<line x1="539.5" y1="648" x2="539.5" y2="663" stroke="black"/>
<line x1="540" y1="648.5" x2="525" y2="648.5" stroke="black"/>
<line x1="540" y1="704.5" x2="525" y2="704.5" stroke="black"/>
<line x1="484.5" y1="705" x2="484.5" y2="690" stroke="black"/>
<line x1="484" y1="704.5" x2="499" y2="704.5" stroke="black"/>
<line x1="539.5" y1="704" x2="539.5" y2="688" stroke="black"/>
<line x1="754" y1="73.5" x2="769" y2="73.5" stroke="black"/>
<line x1="754.5" y1="74" x2="754.5" y2="89" stroke="black"/>
<line x1="809.5" y1="73" x2="809.5" y2="88" stroke="black"/>
<line x1="810" y1="73.5" x2="795" y2="73.5" stroke="black"/>
<line x1="810" y1="129.5" x2="795" y2="129.5" stroke="black"/>
<line x1="754.5" y1="130" x2="754.5" y2="115" stroke="black"/>
<line x1="754" y1="129.5" x2="769" y2="129.5" stroke="black"/>
<line x1="809.5" y1="129" x2="809.5" y2="113" stroke="black"/>
<line x1="570" y1="648.5" x2="585" y2="648.5" stroke="black"/>
<line x1="570.5" y1="649" x2="570.5" y2="664" stroke="black"/>
<line x1="625.5" y1="648" x2="625.5" y2="663" stroke="black"/>
<line x1="626" y1="648.5" x2="611" y2="648.5" stroke="black"/>
<line x1="626" y1="704.5" x2="611" y2="704.5" stroke="black"/>
<line x1="570.5" y1="705" x2="570.5" y2="690" stroke="black"/>
<line x1="570" y1="704.5" x2="585" y2="704.5" stroke="black"/>
<line x1="625.5" y1="704" x2="625.5" y2="688" stroke="black"/>
<line x1="443" y1="739.5" x2="458" y2="739.5" stroke="black"/>
<line x1="443.5" y1="740" x2="443.5" y2="755" stroke="black"/>
<line x1="498.5" y1="739" x2="498.5" y2="754" stroke="black"/>
<line x1="499" y1="739.5" x2="484" y2="739.5" stroke="black"/>
<line x1="499" y1="795.5" x2="484" y2="795.5" stroke="black"/>
<line x1="443.5" y1="796" x2="443.5" y2="781" stroke="black"/>
<line x1="443" y1="795.5" x2="458" y2="795.5" stroke="black"/>
<line x1="498.5" y1="795" x2="498.5" y2="779" stroke="black"/>
<path d="M1563.18 231.25C1562.16 231.25 1561.24 231.083 1560.43 230.75C1559.63 230.417 1558.92 229.925 1558.3 229.275L1559.2 227.7L1559.3 227.475L1559.48 227.575C1559.51 227.692 1559.55 227.825 1559.6 227.975C1559.65 228.108 1559.77 228.275 1559.95 228.475C1560.38 228.842 1560.88 229.133 1561.45 229.35C1562.03 229.567 1562.69 229.675 1563.42 229.675C1563.89 229.675 1564.32 229.608 1564.7 229.475C1565.1 229.325 1565.44 229.133 1565.73 228.9C1566.03 228.65 1566.25 228.367 1566.4 228.05C1566.57 227.717 1566.65 227.367 1566.65 227C1566.65 226.717 1566.62 226.458 1566.55 226.225C1566.5 225.992 1566.39 225.783 1566.23 225.6C1566.08 225.4 1565.87 225.208 1565.6 225.025C1565.33 224.825 1564.99 224.617 1564.58 224.4C1564.16 224.183 1563.66 223.95 1563.08 223.7C1561.99 223.283 1561.13 222.833 1560.5 222.35C1559.88 221.85 1559.44 221.325 1559.18 220.775C1558.93 220.225 1558.8 219.658 1558.8 219.075C1558.8 218.308 1558.99 217.642 1559.38 217.075C1559.76 216.492 1560.3 216.042 1561 215.725C1561.72 215.392 1562.57 215.225 1563.55 215.225C1564.12 215.225 1564.66 215.308 1565.18 215.475C1565.71 215.625 1566.2 215.842 1566.65 216.125C1567.12 216.408 1567.53 216.758 1567.88 217.175L1566.9 218.475L1566.75 218.675L1566.6 218.575C1566.58 218.442 1566.55 218.308 1566.5 218.175C1566.45 218.042 1566.33 217.875 1566.15 217.675C1565.75 217.292 1565.33 217.033 1564.88 216.9C1564.43 216.75 1563.89 216.675 1563.28 216.675C1562.86 216.675 1562.48 216.733 1562.15 216.85C1561.83 216.967 1561.56 217.133 1561.33 217.35C1561.09 217.567 1560.91 217.817 1560.78 218.1C1560.66 218.367 1560.6 218.65 1560.6 218.95C1560.6 219.233 1560.63 219.492 1560.7 219.725C1560.77 219.958 1560.88 220.183 1561.05 220.4C1561.22 220.617 1561.44 220.833 1561.73 221.05C1562.03 221.267 1562.39 221.483 1562.83 221.7C1563.28 221.917 1563.82 222.15 1564.45 222.4C1565.22 222.717 1565.85 223.033 1566.35 223.35C1566.87 223.65 1567.27 223.975 1567.55 224.325C1567.85 224.658 1568.06 225.025 1568.18 225.425C1568.31 225.825 1568.38 226.267 1568.38 226.75C1568.38 227.467 1568.19 228.175 1567.83 228.875C1567.48 229.558 1566.92 230.125 1566.15 230.575C1565.38 231.025 1564.39 231.25 1563.18 231.25ZM1574.7 231V216.975H1570.28V215.4H1581.08V216.975H1576.48V231H1574.7ZM1590.93 226.45H1585.28L1585.63 225.1H1590.53L1590.93 226.45ZM1588.23 219.15L1584.13 231H1582.4L1588.15 215.15H1588.35L1594.1 231H1592.3L1588.23 219.15ZM1595.75 215.425H1597.45L1604 226.975V215.425H1605.65H1605.9V215.6C1605.8 215.7 1605.73 215.808 1605.7 215.925C1605.68 216.042 1605.68 216.242 1605.68 216.525V231H1604.3L1597.43 218.75V231H1595.75V215.425ZM1608.35 231.025V215.425H1611.98C1612.88 215.425 1613.63 215.508 1614.25 215.675C1614.87 215.842 1615.39 216.083 1615.83 216.4C1616.26 216.7 1616.64 217.083 1616.98 217.55C1617.33 218.017 1617.61 218.542 1617.83 219.125C1618.06 219.708 1618.23 220.35 1618.33 221.05C1618.44 221.733 1618.5 222.483 1618.5 223.3C1618.45 224.5 1618.29 225.575 1618.03 226.525C1617.76 227.475 1617.36 228.283 1616.83 228.95C1616.29 229.617 1615.6 230.133 1614.75 230.5C1613.92 230.85 1612.89 231.025 1611.68 231.025H1608.35ZM1610 229.65H1611.6C1612.8 229.65 1613.78 229.408 1614.53 228.925C1615.29 228.442 1615.86 227.733 1616.23 226.8C1616.59 225.867 1616.77 224.733 1616.75 223.4C1616.75 222.033 1616.58 220.867 1616.25 219.9C1615.92 218.933 1615.39 218.192 1614.68 217.675C1613.98 217.158 1613.04 216.9 1611.88 216.9H1610V229.65ZM1622.28 223.975V222.3H1629.28V223.975H1622.28ZM1633.2 231V215.425H1637.63C1638.53 215.425 1639.3 215.517 1639.95 215.7C1640.6 215.883 1641.13 216.142 1641.55 216.475C1641.98 216.808 1642.3 217.208 1642.5 217.675C1642.7 218.142 1642.8 218.65 1642.8 219.2C1642.8 219.683 1642.71 220.158 1642.53 220.625C1642.36 221.092 1642.1 221.5 1641.75 221.85C1641.42 222.2 1641 222.467 1640.5 222.65C1640.93 222.8 1641.33 223.008 1641.68 223.275C1642.04 223.542 1642.35 223.858 1642.6 224.225C1642.87 224.575 1643.07 224.958 1643.2 225.375C1643.35 225.775 1643.43 226.192 1643.43 226.625C1643.43 227.275 1643.31 227.875 1643.08 228.425C1642.84 228.958 1642.48 229.417 1642 229.8C1641.53 230.183 1640.93 230.483 1640.2 230.7C1639.47 230.9 1638.6 231 1637.6 231H1633.2ZM1634.93 229.475H1637.9C1638.63 229.475 1639.28 229.383 1639.83 229.2C1640.38 229 1640.8 228.683 1641.1 228.25C1641.42 227.817 1641.58 227.242 1641.58 226.525C1641.58 225.908 1641.44 225.367 1641.18 224.9C1640.91 224.417 1640.48 224.042 1639.88 223.775C1639.29 223.492 1638.49 223.35 1637.48 223.35H1634.93V229.475ZM1634.93 221.875H1637.38C1638.29 221.875 1639.02 221.767 1639.55 221.55C1640.08 221.333 1640.47 221.042 1640.7 220.675C1640.93 220.292 1641.05 219.867 1641.05 219.4C1641.05 219.05 1640.98 218.725 1640.85 218.425C1640.73 218.125 1640.54 217.867 1640.28 217.65C1640.01 217.417 1639.66 217.233 1639.23 217.1C1638.79 216.967 1638.27 216.9 1637.65 216.9H1634.93V221.875ZM1650 231V224.85L1645.2 215.425H1647.2L1651.03 222.975L1654.48 215.425H1656.33L1651.9 224.85V231H1650Z" fill="black"/>
<line x1="1522.35" y1="177.646" x2="1550.26" y2="205.551" stroke="black"/>
<line x1="1690.35" y1="178.354" x2="1662.45" y2="206.258" stroke="black"/>
<line x1="1689.65" y1="267.427" x2="1661.74" y2="239.522" stroke="black"/>
<line x1="1521.65" y1="266.72" x2="1549.55" y2="238.815" stroke="black"/>
<path d="M892.414 267.95L893.828 266.536L891 263.707L889.586 265.121L892.414 267.95ZM875.121 279.586C874.34 280.367 874.34 281.633 875.121 282.414C875.902 283.195 877.169 283.195 877.95 282.414L875.121 279.586ZM889.586 265.121L875.121 279.586L877.95 282.414L892.414 267.95L889.586 265.121Z" fill="black"/>
<path d="M901.414 265.586L900 264.172L897.172 267L898.586 268.414L901.414 265.586ZM913.05 282.879C913.831 283.66 915.098 283.66 915.879 282.879C916.66 282.098 916.66 280.831 915.879 280.05L913.05 282.879ZM898.586 268.414L913.05 282.879L915.879 280.05L901.414 265.586L898.586 268.414Z" fill="black"/>
<path d="M899.05 255.515L897.636 256.929L900.464 259.757L901.879 258.343L899.05 255.515ZM916.343 243.879C917.124 243.098 917.124 241.831 916.343 241.05C915.562 240.269 914.296 240.269 913.515 241.05L916.343 243.879ZM901.879 258.343L916.343 243.879L913.515 241.05L899.05 255.515L901.879 258.343Z" fill="black"/>
<path d="M890.05 257.879L891.464 259.293L894.293 256.464L892.879 255.05L890.05 257.879ZM878.414 240.586C877.633 239.805 876.367 239.805 875.586 240.586C874.805 241.367 874.805 242.633 875.586 243.414L878.414 240.586ZM892.879 255.05L878.414 240.586L875.586 243.414L890.05 257.879L892.879 255.05Z" fill="black"/>
<path d="M939.879 267.95L941.293 266.536L938.464 263.707L937.05 265.121L939.879 267.95ZM922.586 279.586C921.805 280.367 921.805 281.633 922.586 282.414C923.367 283.195 924.633 283.195 925.414 282.414L922.586 279.586ZM937.05 265.121L922.586 279.586L925.414 282.414L939.879 267.95L937.05 265.121Z" fill="black"/>
<path d="M948.879 265.586L947.464 264.172L944.636 267L946.05 268.414L948.879 265.586ZM960.515 282.879C961.296 283.66 962.562 283.66 963.343 282.879C964.124 282.098 964.124 280.831 963.343 280.05L960.515 282.879ZM946.05 268.414L960.515 282.879L963.343 280.05L948.879 265.586L946.05 268.414Z" fill="black"/>
<path d="M946.514 255.515L945.1 256.929L947.929 259.757L949.343 258.343L946.514 255.515ZM963.807 243.879C964.588 243.098 964.588 241.831 963.807 241.05C963.026 240.269 961.76 240.269 960.979 241.05L963.807 243.879ZM949.343 258.343L963.807 243.879L960.979 241.05L946.514 255.515L949.343 258.343Z" fill="black"/>
<path d="M937.514 257.879L938.929 259.293L941.757 256.464L940.343 255.05L937.514 257.879ZM925.878 240.586C925.097 239.805 923.831 239.805 923.05 240.586C922.269 241.367 922.269 242.633 923.05 243.414L925.878 240.586ZM940.343 255.05L925.878 240.586L923.05 243.414L937.514 257.879L940.343 255.05Z" fill="black"/>
<path d="M891.879 316.95L893.293 315.536L890.464 312.707L889.05 314.121L891.879 316.95ZM874.586 328.586C873.805 329.367 873.805 330.633 874.586 331.414C875.367 332.195 876.633 332.195 877.414 331.414L874.586 328.586ZM889.05 314.121L874.586 328.586L877.414 331.414L891.879 316.95L889.05 314.121Z" fill="black"/>
<path d="M900.879 314.586L899.464 313.172L896.636 316L898.05 317.414L900.879 314.586ZM912.515 331.879C913.296 332.66 914.562 332.66 915.343 331.879C916.124 331.098 916.124 329.831 915.343 329.05L912.515 331.879ZM898.05 317.414L912.515 331.879L915.343 329.05L900.879 314.586L898.05 317.414Z" fill="black"/>
<path d="M898.514 304.515L897.1 305.929L899.929 308.757L901.343 307.343L898.514 304.515ZM915.807 292.879C916.588 292.098 916.588 290.831 915.807 290.05C915.026 289.269 913.76 289.269 912.979 290.05L915.807 292.879ZM901.343 307.343L915.807 292.879L912.979 290.05L898.514 304.515L901.343 307.343Z" fill="black"/>
<path d="M889.514 306.879L890.929 308.293L893.757 305.464L892.343 304.05L889.514 306.879ZM877.878 289.586C877.097 288.805 875.831 288.805 875.05 289.586C874.269 290.367 874.269 291.633 875.05 292.414L877.878 289.586ZM892.343 304.05L877.878 289.586L875.05 292.414L889.514 306.879L892.343 304.05Z" fill="black"/>
<path d="M939.343 316.95L940.757 315.536L937.929 312.707L936.514 314.121L939.343 316.95ZM922.05 328.586C921.269 329.367 921.269 330.633 922.05 331.414C922.831 332.195 924.097 332.195 924.878 331.414L922.05 328.586ZM936.514 314.121L922.05 328.586L924.878 331.414L939.343 316.95L936.514 314.121Z" fill="black"/>
<path d="M948.343 314.586L946.929 313.172L944.1 316L945.514 317.414L948.343 314.586ZM959.979 331.879C960.76 332.66 962.026 332.66 962.807 331.879C963.588 331.098 963.588 329.831 962.807 329.05L959.979 331.879ZM945.514 317.414L959.979 331.879L962.807 329.05L948.343 314.586L945.514 317.414Z" fill="black"/>
<path d="M945.979 304.515L944.565 305.929L947.393 308.757L948.807 307.343L945.979 304.515ZM963.272 292.879C964.053 292.098 964.053 290.831 963.272 290.05C962.491 289.269 961.224 289.269 960.443 290.05L963.272 292.879ZM948.807 307.343L963.272 292.879L960.443 290.05L945.979 304.515L948.807 307.343Z" fill="black"/>
<path d="M936.979 306.879L938.393 308.293L941.221 305.464L939.807 304.05L936.979 306.879ZM925.343 289.586C924.562 288.805 923.295 288.805 922.514 289.586C921.733 290.367 921.733 291.633 922.514 292.414L925.343 289.586ZM939.807 304.05L925.343 289.586L922.514 292.414L936.979 306.879L939.807 304.05Z" fill="black"/>
<path d="M901.879 363.586L900.464 362.172L897.636 365L899.05 366.414L901.879 363.586ZM913.515 380.879C914.296 381.66 915.562 381.66 916.343 380.879C917.124 380.098 917.124 378.831 916.343 378.05L913.515 380.879ZM899.05 366.414L913.515 380.879L916.343 378.05L901.879 363.586L899.05 366.414Z" fill="black"/>
<path d="M899.514 353.515L898.1 354.929L900.929 357.757L902.343 356.343L899.514 353.515ZM916.807 341.879C917.588 341.098 917.588 339.831 916.807 339.05C916.026 338.269 914.76 338.269 913.979 339.05L916.807 341.879ZM902.343 356.343L916.807 341.879L913.979 339.05L899.514 353.515L902.343 356.343Z" fill="black"/>
<path d="M890.514 355.879L891.929 357.293L894.757 354.464L893.343 353.05L890.514 355.879ZM878.878 338.586C878.097 337.805 876.831 337.805 876.05 338.586C875.269 339.367 875.269 340.633 876.05 341.414L878.878 338.586ZM893.343 353.05L878.878 338.586L876.05 341.414L890.514 355.879L893.343 353.05Z" fill="black"/>
<path d="M987.879 365.95L989.293 364.536L986.464 361.707L985.05 363.121L987.879 365.95ZM970.586 377.586C969.805 378.367 969.805 379.633 970.586 380.414C971.367 381.195 972.633 381.195 973.414 380.414L970.586 377.586ZM985.05 363.121L970.586 377.586L973.414 380.414L987.879 365.95L985.05 363.121Z" fill="black"/>
<path d="M996.879 363.586L995.464 362.172L992.636 365L994.05 366.414L996.879 363.586ZM1008.51 380.879C1009.3 381.66 1010.56 381.66 1011.34 380.879C1012.12 380.098 1012.12 378.831 1011.34 378.05L1008.51 380.879ZM994.05 366.414L1008.51 380.879L1011.34 378.05L996.879 363.586L994.05 366.414Z" fill="black"/>
<path d="M994.514 353.515L993.1 354.929L995.929 357.757L997.343 356.343L994.514 353.515ZM1011.81 341.879C1012.59 341.098 1012.59 339.831 1011.81 339.05C1011.03 338.269 1009.76 338.269 1008.98 339.05L1011.81 341.879ZM997.343 356.343L1011.81 341.879L1008.98 339.05L994.514 353.515L997.343 356.343Z" fill="black"/>
<path d="M985.514 355.879L986.929 357.293L989.757 354.464L988.343 353.05L985.514 355.879ZM973.878 338.586C973.097 337.805 971.831 337.805 971.05 338.586C970.269 339.367 970.269 340.633 971.05 341.414L973.878 338.586ZM988.343 353.05L973.878 338.586L971.05 341.414L985.514 355.879L988.343 353.05Z" fill="black"/>
<path d="M840.879 316.95L842.293 315.536L839.464 312.707L838.05 314.121L840.879 316.95ZM823.586 328.586C822.805 329.367 822.805 330.633 823.586 331.414C824.367 332.195 825.633 332.195 826.414 331.414L823.586 328.586ZM838.05 314.121L823.586 328.586L826.414 331.414L840.879 316.95L838.05 314.121Z" fill="black"/>
<path d="M849.879 314.586L848.464 313.172L845.636 316L847.05 317.414L849.879 314.586ZM861.515 331.879C862.296 332.66 863.562 332.66 864.343 331.879C865.124 331.098 865.124 329.831 864.343 329.05L861.515 331.879ZM847.05 317.414L861.515 331.879L864.343 329.05L849.879 314.586L847.05 317.414Z" fill="black"/>
<path d="M847.514 304.515L846.1 305.929L848.929 308.757L850.343 307.343L847.514 304.515ZM864.807 292.879C865.588 292.098 865.588 290.831 864.807 290.05C864.026 289.269 862.76 289.269 861.979 290.05L864.807 292.879ZM850.343 307.343L864.807 292.879L861.979 290.05L847.514 304.515L850.343 307.343Z" fill="black"/>
<path d="M838.514 306.879L839.929 308.293L842.757 305.464L841.343 304.05L838.514 306.879ZM826.878 289.586C826.097 288.805 824.831 288.805 824.05 289.586C823.269 290.367 823.269 291.633 824.05 292.414L826.878 289.586ZM841.343 304.05L826.878 289.586L824.05 292.414L838.514 306.879L841.343 304.05Z" fill="black"/>
<path d="M940.343 365.95L941.757 364.536L938.929 361.707L937.514 363.121L940.343 365.95ZM923.05 377.586C922.269 378.367 922.269 379.633 923.05 380.414C923.831 381.195 925.097 381.195 925.878 380.414L923.05 377.586ZM937.514 363.121L923.05 377.586L925.878 380.414L940.343 365.95L937.514 363.121Z" fill="black"/>
<path d="M949.343 363.586L947.929 362.172L945.1 365L946.514 366.414L949.343 363.586ZM960.979 380.879C961.76 381.66 963.026 381.66 963.807 380.879C964.588 380.098 964.588 378.831 963.807 378.05L960.979 380.879ZM946.514 366.414L960.979 380.879L963.807 378.05L949.343 363.586L946.514 366.414Z" fill="black"/>
<path d="M946.979 353.515L945.565 354.929L948.393 357.757L949.807 356.343L946.979 353.515ZM964.272 341.879C965.053 341.098 965.053 339.831 964.272 339.05C963.491 338.269 962.224 338.269 961.443 339.05L964.272 341.879ZM949.807 356.343L964.272 341.879L961.443 339.05L946.979 353.515L949.807 356.343Z" fill="black"/>
<path d="M937.979 355.879L939.393 357.293L942.221 354.464L940.807 353.05L937.979 355.879ZM926.343 338.586C925.562 337.805 924.295 337.805 923.514 338.586C922.733 339.367 922.733 340.633 923.514 341.414L926.343 338.586ZM940.807 353.05L926.343 338.586L923.514 341.414L937.979 355.879L940.807 353.05Z" fill="black"/>
<path d="M892.879 365.95L894.293 364.536L891.464 361.707L890.05 363.121L892.879 365.95ZM875.586 377.586C874.805 378.367 874.805 379.633 875.586 380.414C876.367 381.195 877.633 381.195 878.414 380.414L875.586 377.586ZM890.05 363.121L875.586 377.586L878.414 380.414L892.879 365.95L890.05 363.121Z" fill="black"/>
</svg>
