{
    "asset" : {
        "generator" : "Khronos glTF Blender I/O v1.7.33",
        "version" : "2.0"
    },
    "scene" : 0,
    "scenes" : [
        {
            "name" : "Scene",
            "nodes" : [
                0
            ]
        }
    ],
    "nodes" : [
        {
            "mesh" : 0,
            "name" : "Ship",
            "rotation" : [
                2.411601053609047e-05,
                2.6347792299930006e-05,
                0.000789351062849164,
                1
            ],
            "translation" : [
                27.440752029418945,
                -0.47009503841400146,
                -26.235605239868164
            ]
        }
    ],
    "animations" : [
        {
            "channels" : [
                {
                    "sampler" : 0,
                    "target" : {
                        "node" : 0,
                        "path" : "translation"
                    }
                },
                {
                    "sampler" : 1,
                    "target" : {
                        "node" : 0,
                        "path" : "rotation"
                    }
                },
                {
                    "sampler" : 2,
                    "target" : {
                        "node" : 0,
                        "path" : "scale"
                    }
                }
            ],
            "name" : "ShipAction.001",
            "samplers" : [
                {
                    "input" : 4,
                    "interpolation" : "LINEAR",
                    "output" : 5
                },
                {
                    "input" : 4,
                    "interpolation" : "LINEAR",
                    "output" : 6
                },
                {
                    "input" : 7,
                    "interpolation" : "LINEAR",
                    "output" : 8
                }
            ]
        }
    ],
    "materials" : [
        {
            "doubleSided" : true,
            "name" : "Ship Blue",
            "pbrMetallicRoughness" : {
                "baseColorFactor" : [
                    0.010960012674331665,
                    0.5209956169128418,
                    0.8069523572921753,
                    1
                ],
                "metallicFactor" : 0,
                "roughnessFactor" : 0.5
            }
        }
    ],
    "meshes" : [
        {
            "name" : "Cube.008",
            "primitives" : [
                {
                    "attributes" : {
                        "POSITION" : 0,
                        "NORMAL" : 1,
                        "TEXCOORD_0" : 2
                    },
                    "indices" : 3,
                    "material" : 0
                }
            ]
        }
    ],
    "accessors" : [
        {
            "bufferView" : 0,
            "componentType" : 5126,
            "count" : 2356,
            "max" : [
                15.649548530578613,
                4.897444248199463,
                6.590775012969971
            ],
            "min" : [
                -15.649548530578613,
                -1.8219575881958008,
                -21.4271297454834
            ],
            "type" : "VEC3"
        },
        {
            "bufferView" : 1,
            "componentType" : 5126,
            "count" : 2356,
            "type" : "VEC3"
        },
        {
            "bufferView" : 2,
            "componentType" : 5126,
            "count" : 2356,
            "type" : "VEC2"
        },
        {
            "bufferView" : 3,
            "componentType" : 5123,
            "count" : 3864,
            "type" : "SCALAR"
        },
        {
            "bufferView" : 4,
            "componentType" : 5126,
            "count" : 131,
            "max" : [
                5.416666666666667
            ],
            "min" : [
                0
            ],
            "type" : "SCALAR"
        },
        {
            "bufferView" : 5,
            "componentType" : 5126,
            "count" : 131,
            "type" : "VEC3"
        },
        {
            "bufferView" : 6,
            "componentType" : 5126,
            "count" : 131,
            "type" : "VEC4"
        },
        {
            "bufferView" : 7,
            "componentType" : 5126,
            "count" : 2,
            "max" : [
                3.75
            ],
            "min" : [
                1.25
            ],
            "type" : "SCALAR"
        },
        {
            "bufferView" : 8,
            "componentType" : 5126,
            "count" : 2,
            "type" : "VEC3"
        }
    ],
    "bufferViews" : [
        {
            "buffer" : 0,
            "byteLength" : 28272,
            "byteOffset" : 0
        },
        {
            "buffer" : 0,
            "byteLength" : 28272,
            "byteOffset" : 28272
        },
        {
            "buffer" : 0,
            "byteLength" : 18848,
            "byteOffset" : 56544
        },
        {
            "buffer" : 0,
            "byteLength" : 7728,
            "byteOffset" : 75392
        },
        {
            "buffer" : 0,
            "byteLength" : 524,
            "byteOffset" : 83120
        },
        {
            "buffer" : 0,
            "byteLength" : 1572,
            "byteOffset" : 83644
        },
        {
            "buffer" : 0,
            "byteLength" : 2096,
            "byteOffset" : 85216
        },
        {
            "buffer" : 0,
            "byteLength" : 8,
            "byteOffset" : 87312
        },
        {
            "buffer" : 0,
            "byteLength" : 24,
            "byteOffset" : 87320
        }
    ],
    "buffers" : [
        {
            "byteLength" : 87344,
            "uri" : "data:application/octet-stream;base64,"
        }
    ]
}
