{
    "asset" : {
        "generator" : "Khronos glTF Blender I/O v1.7.33",
        "version" : "2.0"
    },
    "scene" : 0,
    "scenes" : [
        {
            "name" : "Scene",
            "nodes" : [
                0
            ]
        }
    ],
    "nodes" : [
        {
            "mesh" : 0,
            "name" : "Ship",
            "translation" : [
                27.901601791381836,
                -0.31642138957977295,
                -26.254915237426758
            ]
        }
    ],
    "meshes" : [
        {
            "name" : "Cube.001",
            "primitives" : [
                {
                    "attributes" : {
                        "POSITION" : 0,
                        "NORMAL" : 1,
                        "TEXCOORD_0" : 2
                    },
                    "indices" : 3
                }
            ]
        }
    ],
    "accessors" : [
        {
            "bufferView" : 0,
            "componentType" : 5126,
            "count" : 2356,
            "max" : [
                15.649548530578613,
                4.897444248199463,
                6.590775012969971
            ],
            "min" : [
                -15.649548530578613,
                -1.8219575881958008,
                -21.82976531982422
            ],
            "type" : "VEC3"
        },
        {
            "bufferView" : 1,
            "componentType" : 5126,
            "count" : 2356,
            "type" : "VEC3"
        },
        {
            "bufferView" : 2,
            "componentType" : 5126,
            "count" : 2356,
            "type" : "VEC2"
        },
        {
            "bufferView" : 3,
            "componentType" : 5123,
            "count" : 3864,
            "type" : "SCALAR"
        }
    ],
    "bufferViews" : [
        {
            "buffer" : 0,
            "byteLength" : 28272,
            "byteOffset" : 0
        },
        {
            "buffer" : 0,
            "byteLength" : 28272,
            "byteOffset" : 28272
        },
        {
            "buffer" : 0,
            "byteLength" : 18848,
            "byteOffset" : 56544
        },
        {
            "buffer" : 0,
            "byteLength" : 7728,
            "byteOffset" : 75392
        }
    ],
    "buffers" : [
        {
            "byteLength" : 83120,
            "uri" : "data:application/octet-stream;base64,"
        }
    ]
}
