{
    "asset" : {
        "generator" : "Khronos glTF Blender I/O v1.7.33",
        "version" : "2.0"
    },
    "scene" : 0,
    "scenes" : [
        {
            "name" : "Scene",
            "nodes" : [
                0
            ]
        }
    ],
    "nodes" : [
        {
            "mesh" : 0,
            "name" : "Station",
            "scale" : [
                38.0281867980957,
                38.0281867980957,
                38.0281867980957
            ],
            "translation" : [
                0,
                -1.2820634841918945,
                0
            ]
        }
    ],
    "materials" : [
        {
            "doubleSided" : true,
            "name" : "Base White",
            "pbrMetallicRoughness" : {
                "baseColorFactor" : [
                    0.800000011920929,
                    0.800000011920929,
                    0.800000011920929,
                    1
                ],
                "metallicFactor" : 0
            }
        }
    ],
    "meshes" : [
        {
            "name" : "Cylinder.001",
            "primitives" : [
                {
                    "attributes" : {
                        "POSITION" : 0,
                        "NORMAL" : 1,
                        "TEXCOORD_0" : 2
                    },
                    "indices" : 3,
                    "material" : 0
                }
            ]
        }
    ],
    "accessors" : [
        {
            "bufferView" : 0,
            "componentType" : 5126,
            "count" : 7278,
            "max" : [
                5.42848014831543,
                4.948622703552246,
                5.746265888214111
            ],
            "min" : [
                -5.428482532501221,
                -4.345860481262207,
                -5.7462639808654785
            ],
            "type" : "VEC3"
        },
        {
            "bufferView" : 1,
            "componentType" : 5126,
            "count" : 7278,
            "type" : "VEC3"
        },
        {
            "bufferView" : 2,
            "componentType" : 5126,
            "count" : 7278,
            "type" : "VEC2"
        },
        {
            "bufferView" : 3,
            "componentType" : 5123,
            "count" : 10836,
            "type" : "SCALAR"
        }
    ],
    "bufferViews" : [
        {
            "buffer" : 0,
            "byteLength" : 87336,
            "byteOffset" : 0
        },
        {
            "buffer" : 0,
            "byteLength" : 87336,
            "byteOffset" : 87336
        },
        {
            "buffer" : 0,
            "byteLength" : 58224,
            "byteOffset" : 174672
        },
        {
            "buffer" : 0,
            "byteLength" : 21672,
            "byteOffset" : 232896
        }
    ],
    "buffers" : [
        {
            "byteLength" : 254568,
            "uri" : "data:application/octet-stream;base64,"
        }
    ]
}
